<?xml version="1.0" standalone="no"?>
<!DOCTYPE svg PUBLIC "-//W3C//DTD SVG 1.1//EN" "http://www.w3.org/Graphics/SVG/1.1/DTD/svg11.dtd" >
<svg xmlns="http://www.w3.org/2000/svg">
<metadata>
<json>
<![CDATA[
{
	"fontFamily": "sinoUI",
	"majorVersion": 1,
	"minorVersion": 0,
	"designer": "Jack Lee",
	"version": "Version 1.0",
	"fontId": "sinoUI",
	"psName": "sinoUI",
	"subFamily": "Regular",
	"fullName": "sinoUI",
	"description": "Font generated by IcoMoon."
}
]]>
</json>
</metadata>
<defs>
<font id="sinoUI" horiz-adv-x="1024">
<font-face units-per-em="1024" ascent="960" descent="-64" />
<missing-glyph horiz-adv-x="1024" />
<glyph unicode="&#x20;" horiz-adv-x="512" d="" />
<glyph unicode="&#xe001;" glyph-name="paper-clip" data-tags="paper-clip" d="M674 938.667q41.667 0 80-15.667 40-16 70.667-46.667 31-31.333 46.667-70.333 15.333-37.667 15.333-80t-15.333-80q-15.667-39-46.667-70.333l-392.667-392.667q-18-18-42.667-28.333-24-9.333-48-9.333t-48 9.333q-24.667 10.333-42.667 28.333-18.667 18.667-28 42.333-9.333 22.667-9.333 48 0 25.667 9.333 48.333 9.333 23.333 28 42.333l362.333 362q12.667 12.667 30.333 12.667 17.333 0 30-12.667t12.667-30q0-17.667-12.667-30.333l-362.333-362q-12.333-12.333-12.333-30.333 0-17.667 12.333-30 13.333-12.667 30.333-12.667t30.333 12.667l392.667 392.667q37 37 37 90t-37 90q-38 37.333-90.333 37.333-52.667 0-90-37.333l-393.667-391.667q-30.667-30.667-46.667-70.667-15.667-38.333-15.667-80.333 0-41.333 15.667-80.333 16-39.667 46.667-70.333 31.667-31.333 70.667-47t80.333-15.667 80.333 15.667 70.667 47l392 392q12.667 12.667 30.333 12.667 17.333 0 30-12.667t12.667-30q0-17.667-12.667-30.333l-392-392q-43-43-99-65.667-53.333-22-112.333-22-58.667 0-112.333 22-56 22.667-99 65.667-42.667 42.667-65.333 98.667-22 54-22 112.333 0 58.667 22 112.333 22.333 55.333 65.333 99h0.333l393.333 391.667q30.667 30.667 70.333 46.667 39 15.667 80 15.667z" />
<glyph unicode="&#xe102;" glyph-name="grid" data-tags="grid" d="M682.667 896h170.667q53 0 90.5-37.5t37.5-90.5v-170.667q0-53-37.5-90.5t-90.5-37.5h-170.667q-53 0-90.5 37.5t-37.5 90.5v170.667q0 53 37.5 90.5t90.5 37.5zM170.667 384h170.667q53 0 90.5-37.5t37.5-90.5v-170.667q0-53-37.5-90.5t-90.5-37.5h-170.667q-53 0-90.5 37.5t-37.5 90.5v170.667q0 53 37.5 90.5t90.5 37.5zM341.333 298.667h-170.667q-17.667 0-30.167-12.5t-12.5-30.167v-170.667q0-17.667 12.5-30.167t30.167-12.5h170.667q17.667 0 30.167 12.5t12.5 30.167v170.667q0 17.667-12.5 30.167t-30.167 12.5zM170.667 896h170.667q53 0 90.5-37.5t37.5-90.5v-170.667q0-53-37.5-90.5t-90.5-37.5h-170.667q-53 0-90.5 37.5t-37.5 90.5v170.667q0 53 37.5 90.5t90.5 37.5zM341.333 810.667h-170.667q-17.667 0-30.167-12.5t-12.5-30.167v-170.667q0-17.667 12.5-30.167t30.167-12.5h170.667q17.667 0 30.167 12.5t12.5 30.167v170.667q0 17.667-12.5 30.167t-30.167 12.5zM682.667 384h170.667q53 0 90.5-37.5t37.5-90.5v-170.667q0-53-37.5-90.5t-90.5-37.5h-170.667q-53 0-90.5 37.5t-37.5 90.5v170.667q0 53 37.5 90.5t90.5 37.5zM853.333 298.667h-170.667q-17.667 0-30.167-12.5t-12.5-30.167v-170.667q0-17.667 12.5-30.167t30.167-12.5h170.667q17.667 0 30.167 12.5t12.5 30.167v170.667q0 17.667-12.5 30.167t-30.167 12.5zM853.333 810.667h-170.667q-17.667 0-30.167-12.5t-12.5-30.167v-170.667q0-17.667 12.5-30.167t30.167-12.5h170.667q17.667 0 30.167 12.5t12.5 30.167v170.667q0 17.667-12.5 30.167t-30.167 12.5z" />
<glyph unicode="&#xe128;" glyph-name="open" data-tags="open" d="M170.667 896h298.667q17.667 0 30.167-12.5t12.5-30.167-12.5-30.167-30.167-12.5h-298.667q-17.667 0-30.167-12.5t-12.5-30.167v-682.667q0-17.667 12.5-30.167t30.167-12.5h682.667q17.667 0 30.167 12.5t12.5 30.167v298.667q0 17.667 12.5 30.167t30.167 12.5 30.167-12.5 12.5-30.167v-298.667q0-53-37.5-90.5t-90.5-37.5h-682.667q-53 0-90.5 37.5t-37.5 90.5v682.667q0 53 37.5 90.5t90.5 37.5zM682.667 896h256q17.667 0 30.167-12.5t12.5-30.167v-256q0-17.667-12.5-30.167t-30.167-12.5-30.167 12.5-12.5 30.167v153l-354-354q-12.333-12.333-30-12.333-18.333 0-30.5 12.167t-12.167 30.5q0 17.667 12.333 30l354 354h-153q-17.667 0-30.167 12.5t-12.5 30.167 12.5 30.167 30.167 12.5z" />
<glyph unicode="&#xe600;" d="M1022.24 457.6c0 209.856-132.928 388.768-319.104 457.056 234.784-212.864 198.144-577.376 41.12-721.28 141.344 209.824 106.336 550.528-148.512 714.336-78.080-20.448-155.2-76.064-152.352-192.64 4.288-182.848 234.624-315.968 231.296-518.656-2.816-165.024-136.992-211.68-186.688-223.328 15.776-1.44 31.488-2.304 47.488-2.304 268.704 0 486.752 218.080 486.752 486.816z" />
<glyph unicode="&#xe601;" d="M3.776 458.56c-5.952-209.76 121.888-392.224 305.92-465.728-228.64 219.136-181.792 582.56-20.64 722.016-147.264-205.92-121.888-547.52 128.384-718.176 78.528 18.208 157.088 71.52 157.696 188.384 0.64 182.72-225.6 322.24-216.8 524.736 7.392 165.056 142.976 207.744 192.864 217.984-15.52 2.048-31.328 3.296-47.232 3.68-268.704 7.52-492.832-204.32-500.192-472.896z" />
<glyph unicode="&#xe602;" glyph-name="account-box" data-tags="account-box" d="M853.344 846.208h-682.656c-31.296 0-56.896-25.6-56.896-56.896v-682.656c0-31.296 25.6-56.896 56.896-56.896h682.656c31.296 0 56.896 25.632 56.896 56.896v682.656c0 31.296-25.6 56.896-56.896 56.896zM512 689.792c70.528 0 128-57.472 128-128s-57.472-128-128-128-128 57.472-128 128c0 70.528 57.472 128 128 128zM768 163.552h-512v42.624c0 85.376 170.656 128 256 128s256-42.624 256-128v-42.624z" />
<glyph unicode="&#xe603;" glyph-name="account-circle" data-tags="account-circle" d="M512 903.104c-251.456 0-455.104-203.648-455.104-455.104 0-251.424 203.648-455.136 455.104-455.136 251.424 0 455.136 203.68 455.136 455.136s-203.712 455.104-455.136 455.104zM512 746.656c70.528 0 128-57.472 128-128s-57.472-128-128-128-128 57.472-128 128 57.472 128 128 128zM512 135.136c-105.824 0-198.528 52.32-255.424 132.544 6.272 82.464 171.808 123.456 255.424 123.456s249.184-40.992 255.424-123.456c-56.896-80.256-149.6-132.544-255.424-132.544z" />
<glyph unicode="&#xe604;" glyph-name="add" data-tags="add" d="M810.656 405.344h-256v-256h-85.344v256h-256v85.344h256v256h85.344v-256h256v-85.344z" />
<glyph unicode="&#xe605;" glyph-name="add-box" data-tags="add-box" d="M810.656 832h-597.344c-47.36 0-85.344-38.4-85.344-85.344v-597.344c0-46.944 37.984-85.344 85.344-85.344h597.344c46.944 0 85.344 38.4 85.344 85.344v597.344c0 46.944-38.4 85.344-85.344 85.344zM725.344 405.344h-170.656v-170.656h-85.344v170.656h-170.656v85.344h170.656v170.656h85.344v-170.656h170.656v-85.344z" />
<glyph unicode="&#xe606;" glyph-name="add-circle" data-tags="add-circle" d="M512 874.656c-235.52 0-426.656-191.136-426.656-426.656 0-235.488 191.136-426.656 426.656-426.656 235.488 0 426.656 191.168 426.656 426.656 0 235.52-191.168 426.656-426.656 426.656zM725.344 405.344h-170.656v-170.656h-85.344v170.656h-170.656v85.344h170.656v170.656h85.344v-170.656h170.656v-85.344z" />
<glyph unicode="&#xe607;" glyph-name="add-circle-outline" data-tags="add-circle-outline" d="M554.656 661.344h-85.344v-170.656h-170.656v-85.344h170.656v-170.656h85.344v170.656h170.656v85.344h-170.656v170.656zM512 874.656c-235.52 0-426.656-191.136-426.656-426.656 0-235.488 191.136-426.656 426.656-426.656 235.488 0 426.656 191.168 426.656 426.656 0 235.52-191.168 426.656-426.656 426.656zM512 106.656c-188.16 0-341.344 153.184-341.344 341.344s153.184 341.344 341.344 341.344 341.344-153.184 341.344-341.344-153.184-341.344-341.344-341.344z" />
<glyph unicode="&#xe608;" glyph-name="add-shopping-cart" data-tags="add-shopping-cart" d="M469.344 576h85.344v128h128v85.344h-128v128h-85.344v-128h-128v-85.344h128v-128zM298.656 192c-46.944 0-84.896-38.4-84.896-85.344s37.984-85.344 84.896-85.344 85.344 38.4 85.344 85.344-38.4 85.344-85.344 85.344zM725.344 192c-46.944 0-84.896-38.4-84.896-85.344s38.016-85.344 84.896-85.344 85.344 38.4 85.344 85.344-38.4 85.344-85.344 85.344zM305.92 330.656l1.28 5.12 38.4 69.536h317.856c32 0 60.192 17.504 74.688 43.936l164.672 299.104-74.24 40.96h-0.416l-46.944-85.344-117.792-213.344h-299.488l-5.536 11.52-95.584 201.824-40.544 85.344-40.096 85.344h-139.52v-85.344h85.344l153.6-323.84-57.6-104.544c-6.816-11.936-10.656-26.016-10.656-40.96 0-46.944 38.4-85.344 85.344-85.344h512v85.344h-494.080c-5.536 0-10.656 4.704-10.688 10.688v0z" />
<glyph unicode="&#xe609;" glyph-name="adjust" data-tags="adjust" d="M512 874.656c-235.104 0-426.656-191.584-426.656-426.656s191.584-426.656 426.656-426.656c235.072 0 426.656 191.584 426.656 426.656s-191.584 426.656-426.656 426.656zM512 106.656c-188.16 0-341.344 153.184-341.344 341.344s153.184 341.344 341.344 341.344 341.344-153.184 341.344-341.344-153.184-341.344-341.344-341.344zM640 448c0-70.816-57.184-128-128-128s-128 57.184-128 128 57.184 128 128 128 128-57.184 128-128z" />
<glyph unicode="&#xe60a;" glyph-name="android" data-tags="android" d="M896 576c-35.2 0-64-28.8-64-64v-256c0-35.2 28.8-64 64-64s64 28.8 64 64v256c0 35.2-28.8 64-64 64zM128 576c-35.2 0-64-28.8-64-64v-256c0-35.2 28.8-64 64-64s64 28.8 64 64v256c0 35.2-28.8 64-64 64zM224 224c0-53.024 42.976-96 96-96v0-128c0-35.2 28.8-64 64-64s64 28.8 64 64v128h128v-128c0-35.2 28.8-64 64-64s64 28.8 64 64v128c53.024 0 96 42.976 96 96v352h-576v-352zM798.176 640c-9.696 87.872-59.008 163.808-129.632 209.632l32.064 64.032c7.872 15.808 1.504 35.040-14.304 42.944s-35.072 1.504-42.944-14.304l-32.128-64.288-8.352 3.328c-28.576 9.504-59.136 14.656-90.88 14.656s-62.304-5.152-90.88-14.656l-8.352-3.328-32.128 64.288c-7.904 15.808-27.136 22.208-42.944 14.304s-22.208-27.136-14.304-42.944l32.032-64.032c-70.624-45.856-119.904-121.76-129.632-209.632v-32h574.208v32h-1.824zM416 704c-17.664 0-32 14.336-32 32s14.304 31.968 31.936 32c0.032 0 0.064 0 0.096 0s0.032 0 0.064 0c17.632-0.032 31.936-14.336 31.936-32s-14.336-32-32.032-32v0zM608 704c-17.696 0-32 14.336-32 32s14.24 31.968 31.936 32c0 0 0.032 0 0.064 0s0.064 0 0.096 0c17.664-0.032 31.936-14.336 31.936-32s-14.336-32-32.032-32v0z" />
<glyph unicode="&#xe60b;" glyph-name="announcement" data-tags="announcement" d="M853.344 874.656h-682.656c-46.944 0-84.896-38.4-84.896-85.344l-0.416-768 170.656 170.656h597.344c46.944 0 85.344 38.4 85.344 85.344v512c0 46.944-38.4 85.344-85.376 85.344v0zM554.656 490.656h-85.344v256h85.344v-256zM554.656 320h-85.344v85.344h85.344v-85.344z" />
<glyph unicode="&#xe60c;" glyph-name="apple" data-tags="apple" d="M791.488 415.904c-1.312 129.696 105.76 191.872 110.496 194.976-60.128 88.032-153.856 100.064-187.232 101.472-79.712 8.064-155.584-46.944-196.064-46.944-40.352 0-102.816 45.76-168.96 44.544-86.912-1.28-167.072-50.528-211.808-128.384-90.304-156.672-23.136-388.8 64.896-515.936 43.008-62.176 94.304-132.064 161.632-129.568 64.832 2.592 89.376 41.952 167.744 41.952s100.416-41.952 169.056-40.672c69.792 1.312 113.984 63.392 156.704 125.792 49.376 72.192 69.728 142.048 70.88 145.632-1.472 0.704-136.032 52.224-137.344 207.136zM662.56 796.48c35.744 43.36 59.872 103.52 53.28 163.52-51.456-2.112-113.92-34.304-150.816-77.536-33.152-38.368-62.144-99.616-54.368-158.432 57.472-4.48 116.128 29.216 151.904 72.448z" />
<glyph unicode="&#xe60d;" glyph-name="apps" data-tags="apps" d="M113.792 391.136h170.656v170.656h-170.656v-170.656zM113.792 675.552h170.656v170.656h-170.656v-170.656zM113.792 106.656h170.656v170.656h-170.656v-170.656zM398.208 106.656h170.656v170.656h-170.656v-170.656zM682.656 391.136h170.656v170.656h-170.656v-170.656zM398.208 391.136h170.656v170.656h-170.656v-170.656zM682.656 106.656h170.656v170.656h-170.656v-170.656zM682.656 846.208v-170.656h170.656v170.656h-170.656zM398.208 675.552h170.656v170.656h-170.656v-170.656z" />
<glyph unicode="&#xe60e;" glyph-name="arrow-back" data-tags="arrow-back" d="M853.344 490.656h-519.392l238.368 238.368-60.288 60.288-341.344-341.344 341.344-341.344 60.288 60.288-238.368 238.368h519.392v85.376z" />
<glyph unicode="&#xe60f;" glyph-name="arrow-down" data-tags="arrow-down" d="M512-32l480 480h-288v512h-384v-512h-288l480-480z" />
<glyph unicode="&#xe610;" glyph-name="arrow-dropdown" data-tags="arrow-dropdown" d="M284.448 504.896l227.552-227.552 227.552 227.552h-455.104z" />
<glyph unicode="&#xe611;" glyph-name="arrow-dropdown-circle" data-tags="arrow-dropdown-circle" d="M512 874.656c-235.52 0-426.656-191.136-426.656-426.656 0-235.488 191.136-426.656 426.656-426.656 235.488 0 426.656 191.168 426.656 426.656 0 235.52-191.168 426.656-426.656 426.656zM512 362.656l-170.656 170.656h341.344l-170.688-170.656z" />
<glyph unicode="&#xe612;" glyph-name="arrow-dropup" data-tags="arrow-dropup" d="M512 618.656l-227.552-227.52h455.104l-227.552 227.52z" />
<glyph unicode="&#xe613;" glyph-name="arrow-forward" data-tags="arrow-forward" d="M512 789.344l-60.288-60.288 238.336-238.368h-519.36v-85.344h519.36l-238.336-238.368 60.288-60.288 341.344 341.344-341.344 341.312z" />
<glyph unicode="&#xe614;" glyph-name="arrow-up" data-tags="arrow-up" d="M512 928l-480-480h288v-512h384v512h288l-480 480z" />
<glyph unicode="&#xe615;" glyph-name="assignment" data-tags="assignment" d="M810.656 832h-178.336c-17.92 49.504-64.896 85.344-120.32 85.344-55.456 0-102.4-35.84-120.32-85.344h-178.336c-46.944 0-85.344-38.4-85.344-85.344v-597.344c0-46.944 38.4-85.344 85.344-85.344h597.344c46.944 0 85.344 38.4 85.344 85.344v597.344c0 46.944-38.4 85.344-85.376 85.344v0zM512 832c23.424 0 42.656-19.2 42.656-42.656s-19.232-42.656-42.656-42.656c-23.456 0-42.656 19.2-42.656 42.656s19.2 42.656 42.656 42.656zM597.344 234.656h-298.656v85.344h298.656v-85.344zM725.344 405.344h-426.656v85.344h426.656v-85.344zM725.344 576h-426.656v85.344h426.656v-85.344z" />
<glyph unicode="&#xe616;" glyph-name="assignment-ind" data-tags="assignment-ind" d="M810.656 832h-178.336c-17.92 49.504-64.896 85.344-120.32 85.344-55.456 0-102.4-35.84-120.32-85.344h-178.336c-46.944 0-85.344-38.4-85.344-85.344v-597.344c0-46.944 38.4-85.344 85.344-85.344h597.344c46.944 0 85.344 38.4 85.344 85.344v597.344c0 46.944-38.4 85.344-85.376 85.344v0zM512 832c23.424 0 42.656-19.2 42.656-42.656s-19.232-42.656-42.656-42.656c-23.456 0-42.656 19.2-42.656 42.656s19.2 42.656 42.656 42.656zM512 661.344c70.816 0 128-57.184 128-128s-57.184-128-128-128-128 57.184-128 128 57.184 128 128 128zM768 149.344h-512v59.744c0 85.344 170.656 132.256 256 132.256s256-46.944 256-132.256v-59.744z" />
<glyph unicode="&#xe617;" glyph-name="assignment-late" data-tags="assignment-late" d="M810.656 832h-178.336c-17.92 49.504-64.896 85.344-120.32 85.344-55.456 0-102.4-35.84-120.32-85.344h-178.336c-46.944 0-85.344-38.4-85.344-85.344v-597.344c0-46.944 38.4-85.344 85.344-85.344h597.344c46.944 0 85.344 38.4 85.344 85.344v597.344c0 46.944-38.4 85.344-85.376 85.344v0zM554.656 192h-85.344v85.344h85.344v-85.344zM554.656 362.656h-85.344v256h85.344v-256zM512 746.656c-23.456 0-42.656 19.2-42.656 42.656s19.2 42.656 42.656 42.656c23.424 0 42.656-19.2 42.656-42.656s-19.232-42.656-42.656-42.656z" />
<glyph unicode="&#xe618;" glyph-name="assistant-photo" data-tags="assistant-photo" d="M614.4 704l-17.056 85.344h-384v-725.344h85.344v298.656h238.944l17.056-85.344h298.656v426.656l-238.944 0.032z" />
<glyph unicode="&#xe619;" glyph-name="attachfile" data-tags="attachfile" d="M739.552 163.552c0-125.728-101.792-227.552-227.552-227.552-125.728 0-227.552 101.824-227.552 227.552v625.792c0 94.432 76.224 170.656 170.656 170.656s170.656-76.224 170.656-170.656v-512c0-62.592-51.2-113.792-113.792-113.792s-113.792 51.2-113.792 113.792v455.104h56.896v-455.104c0-31.296 25.6-56.896 56.896-56.896s56.896 25.632 56.896 56.896v512c0 62.592-51.2 113.792-113.792 113.792s-113.792-51.2-113.792-113.792v-625.792c0-94.432 76.224-170.688 170.656-170.688s170.656 76.256 170.656 170.688v568.896h56.896v-568.896h0.064z" />
<glyph unicode="&#xe61a;" glyph-name="attachment" data-tags="attachment" d="M853.344 675.552h-625.792c-125.152 0-227.552-102.4-227.552-227.552s102.4-227.552 227.552-227.552h568.896v56.896h-568.896c-96.704 0-170.656 73.984-170.656 170.656 0 96.704 73.952 170.656 170.656 170.656h625.792c62.592 0 113.792-51.2 113.792-113.792s-51.2-113.792-113.792-113.792h-512c-34.144 0-56.896 22.752-56.896 56.896s22.752 56.896 56.896 56.896h455.104v56.896h-455.104c-62.592 0-113.792-51.2-113.792-113.792s51.2-113.792 113.792-113.792h512c96.704 0 170.656 73.952 170.656 170.656s-73.952 170.656-170.656 170.656v0.064z" />
<glyph unicode="&#xe61b;" glyph-name="autorenew" data-tags="autorenew" d="M512 704v-128l170.656 170.656-170.656 170.656v-128c-188.576 0-341.344-152.736-341.344-341.344 0-66.976 19.616-129.28 52.896-181.792l62.304 62.304c-19.2 35.456-29.856 76.384-29.856 119.488 0 141.216 114.784 256 256 256.032v0zM800.448 629.76l-62.304-62.304c18.752-35.84 29.856-76.384 29.856-119.456 0-141.216-114.784-256-256-256v128l-170.656-170.656 170.656-170.656v128c188.608 0 341.344 152.736 341.344 341.344-0.032 66.976-19.648 129.28-52.896 181.728v0z" />
<glyph unicode="&#xe61c;" glyph-name="backspace" data-tags="backspace" d="M938.656 832h-640c-29.44 0-52.48-14.944-67.84-37.536l-230.816-346.464 230.816-346.016c15.36-22.624 38.4-37.984 67.84-37.984h640c46.944 0 85.344 38.4 85.344 85.344v597.344c0 46.944-38.4 85.344-85.344 85.312v0zM810.656 294.816l-60.16-60.16-153.184 153.184-153.184-153.184-60.16 60.16 153.184 153.184-153.184 153.184 60.16 60.16 153.184-153.184 153.184 153.184 60.16-60.16-153.184-153.184 153.184-153.184z" />
<glyph unicode="&#xe61e;" glyph-name="barcode" data-tags="barcode" d="M0 832h128v-640h-128v640zM192 832h64v-640h-64v640zM320 832h64v-640h-64v640zM512 832h64v-640h-64v640zM768 832h64v-640h-64v640zM960 832h64v-640h-64v640zM640 832h32v-640h-32v640zM448 832h32v-640h-32v640zM864 832h32v-640h-32v640zM0 128h64v-64h-64v64zM192 128h64v-64h-64v64zM320 128h64v-64h-64v64zM640 128h64v-64h-64v64zM960 128h64v-64h-64v64zM768 128h128v-64h-128v64zM448 128h128v-64h-128v64z" />
<glyph unicode="&#xe61f;" glyph-name="block" data-tags="block" d="M512 52.051c218.57 0 395.95 177.379 395.95 395.949 0 218.539-177.379 395.949-395.95 395.949-218.539 0-395.949-177.41-395.949-395.949 0-218.57 177.41-395.949 395.949-395.949zM828.777 448c0-175.004-141.742-316.777-316.777-316.777-73.262 0-140.527 24.947-194.010 66.907l443.879 443.879c41.962-53.485 66.907-120.778 66.907-194.010zM512 764.777c73.262 0 140.557-24.947 194.010-66.907l-443.879-443.879c-41.962 53.454-66.907 120.778-66.907 194.010 0 175.004 141.714 316.778 316.777 316.778z" />
<glyph unicode="&#xe620;" glyph-name="bookmark" data-tags="bookmark" d="M725.344 832h-426.656c-46.944 0-84.896-38.4-84.896-85.344l-0.416-682.656 298.656 128 298.656-128v682.656c0 46.944-38.4 85.344-85.344 85.344z" />
<glyph unicode="&#xe621;" glyph-name="bookmark-border" data-tags="bookmark-border" d="M725.344 832h-426.656c-46.944 0-84.896-38.4-84.896-85.344l-0.416-682.656 298.656 128 298.656-128v682.656c0 46.944-38.4 85.344-85.344 85.344zM725.344 192l-213.344 93.024-213.344-93.024v554.656h426.656l0.032-554.656z" />
<glyph unicode="&#xe622;" glyph-name="bordercolor" data-tags="bordercolor" d="M0 106.656h1024v-170.656h-1024v170.656zM761.184 647.104l-163.84 163.84-426.656-426.656v-163.84h163.84l426.656 426.656zM901.696 788.192c11.392 11.392 11.392 29.024 0 40.384l-123.456 123.456c-11.392 11.392-29.024 11.392-40.384 0l-76.8-77.376 163.808-163.84 76.832 77.376z" />
<glyph unicode="&#xe623;" glyph-name="brush" data-tags="brush" d="M298.656 362.656c-70.816 0-128-57.184-128-128 0-55.904-49.504-85.344-85.344-85.344 39.264-52.064 106.24-85.344 170.656-85.344 94.304 0 170.656 76.384 170.656 170.656 0 70.816-57.184 128-127.968 128.032v0zM883.616 762.464l-57.184 57.184c-16.64 16.64-43.52 16.64-60.192 0l-382.272-382.304 117.344-117.344 382.304 382.304c16.64 16.64 16.64 43.52 0 60.16z" />
<glyph unicode="&#xe624;" glyph-name="build" data-tags="build" d="M968.576 149.344l-388.288 388.256c38.4 98.144 17.056 213.344-64 294.4-85.344 85.344-213.344 102.4-315.744 55.456l183.456-183.456-128-128-187.744 183.456c-51.2-102.4-29.856-230.4 55.456-315.744 81.056-81.056 196.256-102.4 294.4-64l388.256-388.288c17.056-17.024 42.656-17.024 59.744 0l98.112 98.144c21.344 17.056 21.344 46.976 4.256 59.744h0.096z" />
<glyph unicode="&#xe625;" glyph-name="cached" data-tags="cached" d="M810.656 618.656l-170.656-170.656h128c0-141.216-114.784-256-256-256-43.104 0-84.064 10.656-119.456 29.888l-62.304-62.304c52.48-33.312 114.784-52.896 181.76-52.896 188.576 0 341.344 152.704 341.344 341.344h128l-170.688 170.624zM256 448c0 141.216 114.784 256 256 256 43.136 0 84.064-10.656 119.424-29.856l62.304 62.304c-52.48 33.28-114.784 52.896-181.76 52.896-188.544 0-341.312-152.736-341.312-341.344h-128l170.656-170.656 170.656 170.656h-127.968z" />
<glyph unicode="&#xe627;" glyph-name="call-end" data-tags="call-end" d="M512 576c-68.256 0-134.4-10.656-196.256-30.72v-132.256c0-16.672-9.824-31.584-23.904-38.4-41.824-20.864-79.776-47.776-113.504-78.944-7.68-7.68-18.336-11.936-29.856-11.936-11.936 0-22.624 4.672-30.304 12.384l-105.824 105.824c-7.68 7.296-12.384 17.952-12.384 29.888s4.704 22.624 12.384 30.304c130.144 123.296 305.92 199.264 499.616 199.264 193.728 0 369.504-75.936 499.584-199.264 7.68-7.68 12.416-18.336 12.416-30.304s-4.704-22.624-12.416-30.304l-105.824-105.824c-7.68-7.68-18.304-12.384-30.304-12.384-11.488 0-22.144 4.672-29.856 11.936-33.696 31.552-72.096 58.016-113.92 78.944-14.080 6.816-23.904 21.312-23.904 38.368v132.256c-61.472 20.48-127.584 31.136-195.84 31.136l0.096 0.032z" />
<glyph unicode="&#xe628;" glyph-name="camera" data-tags="camera" d="M401.056 512l203.488 352.416c-29.824 6.4-60.544 10.24-92.544 10.24-102.4 0-196.256-36.256-269.664-96l156.16-270.944 2.56 4.288zM919.072 576c-39.296 124.576-134.432 224.416-256 270.496l-156.192-270.496h412.192zM930.112 533.344h-319.552l12.384-21.344 203.136-352c69.984 75.936 112.64 176.64 112.64 288-0.032 29.44-3.008 57.6-8.608 85.344zM364.384 448l-166.4 288c-69.536-75.936-112.64-176.64-112.64-288 0-29.44 2.976-57.6 8.544-85.344h319.584l-49.088 85.344zM104.96 320c39.264-124.576 134.4-224.448 256-270.496l156.16 270.496h-412.16zM585.824 320l-166.4-288.448c29.856-6.368 60.576-10.208 92.576-10.208 102.4 0 196.256 36.256 269.696 96l-156.192 270.944-39.68-68.288z" />
<glyph unicode="&#xe62a;" glyph-name="cancel" data-tags="cancel" d="M512 903.104c-251.456 0-455.104-203.648-455.104-455.104 0-251.424 203.648-455.136 455.104-455.136 251.424 0 455.136 203.68 455.136 455.136s-203.712 455.104-455.136 455.104zM739.552 284.736l-64.32-64.32-163.232 163.296-163.264-163.296-64.288 64.32 163.264 163.264-163.264 163.264 64.288 64.288 163.264-163.264 163.264 163.264 64.32-64.288-163.296-163.264 163.264-163.264z" />
<glyph unicode="&#xe62b;" glyph-name="chat" data-tags="chat" d="M853.344 874.656h-682.656c-46.944 0-84.896-38.4-84.896-85.344l-0.416-768 170.656 170.656h597.344c46.944 0 85.344 38.4 85.344 85.344v512c0 46.944-38.4 85.344-85.376 85.344v0zM256 576h512v-85.344h-512v85.344zM597.344 362.656h-341.344v85.344h341.344v-85.344zM768 618.656h-512v85.344h512v-85.344z" />
<glyph unicode="&#xe62c;" glyph-name="chat2" data-tags="chat2" d="M967.111 102.087c0-40.448 23.125-75.463 56.889-92.615v-14.165c-9.444-1.28-19.086-1.963-28.9-1.963-60.444 0-115.001 25.372-153.543 65.991-23.268-6.201-48.014-9.557-73.586-9.557-141.426 0-256 101.888-256 227.556s114.574 227.556 256 227.556 256-101.888 256-227.556c0-49.209-17.579-94.748-47.417-132.011-6.059-13.17-9.472-27.819-9.444-43.236v0zM455.111 903.111c247.524 0 448.882-160.54 454.969-360.448-43.719 19.484-92.075 29.781-142.080 29.781-84.935 0-165.177-29.724-225.877-83.712-62.976-55.979-97.678-131.044-97.678-211.399 0-39.708 8.476-78.137 24.661-113.579-4.636-0.114-9.301-0.199-13.995-0.199-24.149 0-47.844 1.564-70.969 4.494-97.764-97.764-214.443-115.285-327.253-117.874v23.95c60.928 29.81 113.778 84.196 113.778 146.318 0 8.676-0.683 17.18-1.934 25.486-102.94 67.812-168.732 171.378-168.732 287.403 0 204.231 203.748 369.778 455.111 369.778z" />
<glyph unicode="&#xe62d;" glyph-name="chat-bubble" data-tags="chat-bubble" d="M853.344 874.656h-682.656c-46.944 0-85.344-38.4-85.344-85.344v-768l170.656 170.656h597.344c46.944 0 85.344 38.4 85.344 85.344v512c0 46.944-38.4 85.344-85.344 85.344z" />
<glyph unicode="&#xe62e;" glyph-name="chat-bubble-outline" data-tags="chat-bubble-outline" d="M853.344 874.656h-682.656c-46.944 0-85.344-38.4-85.344-85.344v-768l170.656 170.656h597.344c46.944 0 85.344 38.4 85.344 85.344v512c0 46.944-38.4 85.344-85.344 85.344zM853.344 277.344h-597.344l-85.344-85.344v597.344h682.656l0.032-512z" />
<glyph unicode="&#xe630;" glyph-name="square-checked" data-tags="square-checked" d="M898.624 945.088h-773.28c-61.312 0-110.464-49.696-110.464-110.464v-773.28c0-60.768 49.152-110.464 110.464-110.464h773.28c61.312 0 110.464 49.696 110.464 110.464v773.28c0 60.768-49.152 110.464-110.464 110.464zM401.536 171.84l-276.16 276.16 77.888 77.888 198.304-197.728 419.232 419.232 77.888-78.432-497.152-497.12z" />
<glyph unicode="&#xe631;" glyph-name="square" data-tags="square" d="M898.624 834.624v-773.28h-773.28v773.28h773.28zM898.624 945.088h-773.28c-60.768 0-110.464-49.696-110.464-110.464v-773.28c0-60.768 49.696-110.464 110.464-110.464h773.28c60.736 0 110.464 49.696 110.464 110.464v773.28c0 60.768-49.728 110.464-110.464 110.464z" />
<glyph unicode="&#xe632;" glyph-name="checkbox-checked" data-tags="checkbox-checked" d="M512 938.656c-270.848 0-490.656-219.808-490.656-490.656 0-270.812 219.808-490.656 490.656-490.656 270.812 0 490.656 219.844 490.656 490.656 0 270.848-219.844 490.656-490.656 490.656zM413.854 202.654l-245.346 245.346 69.184 69.184 176.162-175.61 372.418 372.418 69.184-69.662-441.602-441.676z" />
<glyph unicode="&#xe633;" glyph-name="checkmark" data-tags="checkmark" d="M864 832l-480-480-224 224-160-160 384-384 640 640-160 160z" />
<glyph unicode="&#xe634;" glyph-name="chevron-left" data-tags="chevron-left" d="M726.496 736.256l-88.8 88.832-377.088-377.056 377.088-377.056 88.8 88.832-288.256 288.256 288.256 288.192z" />
<glyph unicode="&#xe635;" glyph-name="chevron-right" data-tags="chevron-right" d="M386.304 825.056l-88.832-88.832 288.288-288.256-288.288-288.256 88.832-88.832 377.088 377.056-377.088 377.12z" />
<glyph unicode="&#xe636;" glyph-name="chrome" data-tags="chrome" d="M258.272 513.472l-146.528 253.792c93.824 117.472 238.24 192.736 400.256 192.736 187.424 0 351.328-100.736 440.576-251.008h-417.792c-7.52 0.64-15.104 0.992-22.752 0.992-121.888 0-224.576-83.648-253.76-196.512v0zM695.328 635.008h293.44c22.72-57.92 35.232-120.992 35.232-187.008 0-280.8-226.112-508.8-506.176-511.936l209.408 362.688c29.44 42.368 46.752 93.824 46.752 149.248 0.032 73.184-30.144 139.424-78.656 187.008v0zM326.016 448c0 102.56 83.424 186.016 186.016 186.016s186.016-83.424 186.016-186.016c0-102.56-83.456-186.016-186.016-186.016s-186.016 83.456-186.016 186.016zM582.176 195.552l-146.624-253.92c-246.496 36.928-435.584 249.568-435.584 506.336 0 91.232 23.872 176.832 65.696 251.040l209.024-362.048c41.856-89.12 132.48-150.976 237.28-150.976 24.288 0 47.84 3.328 70.144 9.568h0.064z" />
<glyph unicode="&#xe637;" glyph-name="circle-down" data-tags="circle-down" d="M1024 448c0 282.784-229.216 512-512 512s-512-229.216-512-512 229.216-512 512-512 512 229.216 512 512zM96 448c0 229.76 186.24 416 416 416s416-186.24 416-416c0-229.76-186.24-416-416-416s-416 186.24-416 416zM317.248 605.248l-90.528-90.528 285.248-285.248 285.248 285.248-90.496 90.496-194.752-194.752-194.72 194.784z" />
<glyph unicode="&#xe638;" glyph-name="circle-left" data-tags="circle-left" d="M512-64c282.784 0 512 229.216 512 512s-229.216 512-512 512-512-229.216-512-512 229.216-512 512-512zM512 864c229.76 0 416-186.24 416-416s-186.24-416-416-416c-229.76 0-416 186.24-416 416s186.24 416 416 416zM669.248 642.752l-90.528 90.528-285.248-285.248 285.248-285.248 90.496 90.496-194.752 194.752 194.784 194.72z" />
<glyph unicode="&#xe639;" glyph-name="circle-right" data-tags="circle-right" d="M512 960c-282.784 0-512-229.216-512-512s229.216-512 512-512 512 229.216 512 512-229.216 512-512 512zM512 32c-229.76 0-416 186.24-416 416s186.24 416 416 416c229.76 0 416-186.24 416-416s-186.24-416-416-416zM354.752 253.248l90.528-90.528 285.248 285.248-285.248 285.248-90.496-90.496 194.752-194.752-194.784-194.72z" />
<glyph unicode="&#xe63a;" glyph-name="circle-up" data-tags="circle-up" d="M0 448c0-282.784 229.216-512 512-512s512 229.216 512 512-229.216 512-512 512-512-229.216-512-512zM928 448c0-229.76-186.24-416-416-416s-416 186.24-416 416c0 229.76 186.24 416 416 416s416-186.24 416-416zM706.752 290.752l90.528 90.528-285.248 285.248-285.248-285.248 90.496-90.496 194.752 194.752 194.72-194.784z" />
<glyph unicode="&#xe63b;" glyph-name="clear" data-tags="clear" d="M810.656 686.496l-60.16 60.16-238.496-238.496-238.496 238.496-60.16-60.16 238.496-238.496-238.496-238.496 60.16-60.16 238.496 238.496 238.496-238.496 60.16 60.16-238.496 238.496 238.496 238.496z" />
<glyph unicode="&#xe63c;" glyph-name="close" data-tags="close" d="M826.592 702.304l-60.288 60.288-254.304-254.304-254.304 254.304-60.288-60.288 254.304-254.304-254.304-254.304 60.288-60.288 254.304 254.304 254.304-254.304 60.288 60.288-254.304 254.304 254.304 254.304z" />
<glyph unicode="&#xe63d;" glyph-name="cloud" data-tags="cloud" d="M825.6 531.616c-29.024 147.2-158.272 257.696-313.6 257.696-123.296 0-230.4-69.984-283.744-172.384-128.416-13.664-228.256-122.464-228.256-254.304 0-141.216 114.784-256 256-256h554.656c117.792 0 213.344 95.552 213.344 213.344 0 112.64-87.424 203.936-198.4 211.648v0z" />
<glyph unicode="&#xe63e;" glyph-name="cloud-circle" data-tags="cloud-circle" d="M512 903.104c-251.456 0-455.104-203.648-455.104-455.104 0-251.424 203.648-455.136 455.104-455.136 251.424 0 455.136 203.68 455.136 455.136s-203.712 455.104-455.136 455.104zM711.136 277.344h-369.824c-78.496 0-142.208 63.712-142.208 142.208s63.712 142.208 142.208 142.208h10.24c23.904 65.984 86.464 113.792 160.416 113.792 94.432 0 170.656-76.224 170.656-170.656h28.448c62.624 0 113.824-51.2 113.824-113.76 0-62.624-51.2-113.824-113.824-113.824l0.064 0.032z" />
<glyph unicode="&#xe63f;" glyph-name="cloud-done" data-tags="cloud-done" d="M825.6 531.616c-29.024 147.2-158.272 257.696-313.6 257.696-123.296 0-230.4-69.984-283.744-172.384-128.416-13.664-228.256-122.464-228.256-254.304 0-141.216 114.784-256 256-256h554.656c117.792 0 213.344 95.552 213.344 213.344 0 112.64-87.424 203.936-198.4 211.648v0zM426.656 234.656l-149.344 149.344 60.16 60.16 89.184-88.704 221.024 220.544 60.16-60.16-281.184-281.184z" />
<glyph unicode="&#xe640;" glyph-name="cloud-download" data-tags="cloud-download" d="M825.6 531.616c-29.024 147.2-158.272 257.696-313.6 257.696-123.296 0-230.4-69.984-283.744-172.384-128.416-13.664-228.256-122.464-228.256-254.304 0-141.216 114.784-256 256-256h554.656c117.792 0 213.344 95.552 213.344 213.344 0 112.64-87.424 203.936-198.4 211.648v0zM725.344 405.344l-213.344-213.344-213.344 213.344h128v170.656h170.656v-170.656h128.032z" />
<glyph unicode="&#xe641;" glyph-name="cloud-off" data-tags="cloud-off" d="M825.6 531.616c-29.024 147.2-158.272 257.696-313.6 257.696-63.136 0-121.6-18.336-171.104-49.92l62.304-62.304c32.416 17.056 69.536 26.88 108.8 26.88 129.696 0 234.656-104.96 234.656-234.656v-21.344h64c70.816 0 128-57.184 128-128 0-48.224-27.296-90.016-66.56-111.776l61.856-61.856c54.176 38.816 90.016 101.984 90.016 173.664 0 112.64-87.456 203.936-198.368 211.616v0zM128 735.136l117.344-116.896c-136.096-5.984-245.344-117.76-245.344-255.584 0-141.216 114.784-256 256-256h500.512l85.312-85.344 54.176 54.176-713.824 713.824-54.176-54.176zM329.824 533.344l341.376-341.344h-415.168c-94.304 0-170.656 76.384-170.656 170.656s76.384 170.656 170.656 170.656l73.792 0.032z" />
<glyph unicode="&#xe642;" glyph-name="cloud-queue" data-tags="cloud-queue" d="M825.6 531.616c-29.024 147.2-158.272 257.696-313.6 257.696-123.296 0-230.4-69.984-283.744-172.384-128.416-13.664-228.256-122.464-228.256-254.304 0-141.216 114.784-256 256-256h554.656c117.792 0 213.344 95.552 213.344 213.344 0 112.64-87.424 203.936-198.4 211.648v0zM810.656 192h-554.656c-94.304 0-170.656 76.384-170.656 170.656s76.384 170.656 170.656 170.656h30.304c28.16 98.56 118.176 170.656 225.696 170.656 129.696 0 234.656-104.96 234.656-234.656v-21.344h64c70.816 0 128-57.184 128-128s-57.184-128-128-127.968v0z" />
<glyph unicode="&#xe643;" glyph-name="cloud-upload" data-tags="cloud-upload" d="M825.6 531.616c-29.024 147.2-158.272 257.696-313.6 257.696-123.296 0-230.4-69.984-283.744-172.384-128.416-13.664-228.256-122.464-228.256-254.304 0-141.216 114.784-256 256-256h554.656c117.792 0 213.344 95.552 213.344 213.344 0 112.64-87.424 203.936-198.4 211.648v0zM597.344 405.344v-170.656h-170.656v170.656h-128l213.344 213.344 213.344-213.344h-128.032z" />
<glyph unicode="&#xe644;" glyph-name="comment" data-tags="comment" d="M938.24 789.344c0 46.944-38.016 85.344-84.896 85.344h-682.656c-46.944 0-85.344-38.4-85.344-85.344v-512c0-46.944 38.4-85.344 85.344-85.344h597.344l170.656-170.656-0.448 768zM768 362.656h-512v85.344h512v-85.344zM768 490.656h-512v85.344h512v-85.344zM768 618.656h-512v85.344h512v-85.344z" />
<glyph unicode="&#xe645;" glyph-name="computer" data-tags="computer" d="M853.344 192c46.944 0 84.896 38.4 84.896 85.344l0.416 426.656c0 46.944-38.4 85.344-85.344 85.344h-682.656c-46.944 0-85.344-38.4-85.344-85.344v-426.656c0-46.944 38.4-85.344 85.344-85.344h-170.656v-85.344h1024v85.344h-170.656zM170.656 704h682.656v-426.656h-682.656v426.656z" />
<glyph unicode="&#xe646;" glyph-name="contact-mail" data-tags="contact-mail" d="M896 618.656v42.656l-128-85.344-128 85.344v-42.656l128-85.344 128 85.344zM938.656 832h-853.344c-46.944 0-85.344-38.4-85.344-85.344v-597.344c0-46.944 38.4-85.344 85.344-85.344h853.344c46.944 0 84.896 38.4 84.896 85.344l0.416 597.344c0 46.944-38.4 85.344-85.312 85.344v0zM341.344 704c70.816 0 128-57.184 128-128s-57.184-128-128-128-128 57.184-128 128 57.184 128 128 128zM597.344 192h-512v42.656c0 85.344 170.656 132.256 256 132.256s256-46.944 256-132.256v-42.656zM938.656 448h-341.344v256h341.344v-256z" />
<glyph unicode="&#xe647;" glyph-name="contact-phone" data-tags="contact-phone" d="M938.656 832h-853.344c-46.944 0-85.344-38.4-85.344-85.344v-597.344c0-46.944 38.4-85.344 85.344-85.344h853.344c46.944 0 84.896 38.4 84.896 85.344l0.416 597.344c0 46.944-38.4 85.344-85.312 85.344v0zM341.344 704c70.816 0 128-57.184 128-128s-57.184-128-128-128-128 57.184-128 128 57.184 128 128 128zM597.344 192h-512v42.656c0 85.344 170.656 132.256 256 132.256s256-46.944 256-132.256v-42.656zM761.6 362.656h69.984l64.416-85.344-84.864-84.864c-55.936 41.824-97.312 101.504-116.512 170.208-7.68 27.296-11.936 55.904-11.936 85.344s4.256 58.016 11.936 85.344c19.2 69.12 60.576 128.416 116.512 170.24l84.864-84.896-64.448-85.344h-69.952c-9.376-26.88-14.944-55.456-14.944-85.344s5.536-58.464 14.944-85.344z" />
<glyph unicode="&#xe648;" glyph-name="contacts" data-tags="contacts" d="M853.344 960h-682.656v-85.344h682.656v85.344zM170.656-64h682.656v85.344h-682.656v-85.344zM853.344 789.344h-682.656c-46.944 0-85.344-38.4-85.344-85.344v-512c0-46.944 38.4-85.344 85.344-85.344h682.656c46.944 0 85.344 38.4 85.344 85.344v512c0 46.944-38.4 85.344-85.344 85.344zM512 672c52.864 0 96-43.104 96-96s-43.136-96-96-96c-52.896 0-96 43.104-96 96s43.104 96 96 96zM725.344 234.656h-426.656v64c0 71.296 142.080 106.656 213.344 106.656 71.296 0 213.344-35.424 213.344-106.656l-0.032-64z" />
<glyph unicode="&#xe64b;" glyph-name="crop-din" data-tags="crop-din" d="M810.656 832h-597.344c-46.944 0-85.344-38.4-85.344-85.344v-597.344c0-46.944 38.4-85.344 85.344-85.344h597.344c46.944 0 85.344 38.4 85.344 85.344v597.344c0 46.944-38.4 85.344-85.344 85.344zM810.656 149.344h-597.344v597.344h597.344v-597.344z" />
<glyph unicode="&#xe64c;" glyph-name="crop-square" data-tags="crop-square" d="M768 789.344h-512c-46.944 0-85.344-38.4-85.344-85.344v-512c0-46.944 38.4-85.344 85.344-85.344h512c46.944 0 85.344 38.4 85.344 85.344v512c0 46.944-38.4 85.344-85.344 85.344zM768 192h-512v512h512v-512z" />
<glyph unicode="&#xe64d;" glyph-name="cross" data-tags="cross" d="M1014.656 137.344v0l-310.656 310.656 310.656 310.656c3.328 3.36 5.792 7.264 7.328 11.424 4.256 11.392 1.824 24.672-7.328 33.824l-146.752 146.752c-9.152 9.152-22.464 11.552-33.856 7.328-4.128-1.536-8.064-3.968-11.392-7.296v0l-310.656-310.656-310.656 310.656c-3.36 3.328-7.264 5.76-11.424 7.296-11.392 4.256-24.672 1.824-33.824-7.328l-146.752-146.752c-9.152-9.152-11.552-22.464-7.328-33.824 1.568-4.16 3.968-8.064 7.328-11.424v0l310.656-310.656-310.656-310.656c-3.328-3.328-5.76-7.296-7.328-11.392-4.256-11.36-1.824-24.672 7.328-33.856l146.752-146.752c9.152-9.152 22.464-11.52 33.824-7.328 4.16 1.568 8.064 4 11.424 7.328v0l310.656 310.656 310.656-310.656c3.328-3.328 7.296-5.792 11.392-7.328 11.392-4.256 24.672-1.824 33.856 7.328l146.752 146.752c9.152 9.152 11.584 22.464 7.328 33.856-1.536 4.096-3.968 8.032-7.328 11.392z" />
<glyph unicode="&#xe64e;" glyph-name="dehaze" data-tags="dehaze" d="M85.344 298.656v-85.344h853.344v85.344h-853.344zM85.344 512v-85.344h853.344v85.344h-853.344zM85.344 725.344v-85.344h853.344v85.344h-853.344z" />
<glyph unicode="&#xe64f;" glyph-name="delete" data-tags="delete" d="M256 149.344c0-46.944 38.4-85.344 85.344-85.344h341.344c46.944 0 85.344 38.4 85.344 85.344v512h-512l-0.032-512zM810.656 789.344h-149.344l-42.656 42.656h-213.344l-42.656-42.656h-149.344v-85.344h597.344v85.344z" />
<glyph unicode="&#xe650;" glyph-name="delete2" data-tags="delete2" d="M128 640v-640c0-35.2 28.8-64 64-64h576c35.2 0 64 28.8 64 64v640h-704zM320 64h-64v448h64v-448zM448 64h-64v448h64v-448zM576 64h-64v448h64v-448zM704 64h-64v448h64v-448zM848 832h-208v80c0 26.4-21.6 48-48 48h-224c-26.4 0-48-21.6-48-48v-80h-208c-26.4 0-48-21.6-48-48v-80h832v80c0 26.4-21.6 48-48 48zM576 832h-192v63.2h192v-63.2z" />
<glyph unicode="&#xe651;" glyph-name="delete3" data-tags="delete3" d="M900.576 835.776h-205.248v41.056c0 45.344-36.736 82.080-82.048 82.080h-205.28c-45.344 0-82.112-36.768-82.112-82.080v-41.056h-205.248v-41.056h42.24l41.12-779.936c0-45.344 36.768-82.080 82.112-82.080h451.584c45.312 0 82.048 36.736 82.048 82.080l40.32 779.936h40.512v41.056zM366.944 876.832c0 22.656 18.4 41.056 41.056 41.056h205.248c22.656 0 41.056-18.4 41.056-41.056v-41.056h-287.328l-0.032 41.056zM778.752 16.928l-0.032-1.056v-1.088c0-22.656-18.4-41.024-41.024-41.024h-451.584c-22.656 0-41.056 18.368-41.056 41.024v1.088l-0.032 1.088-41.024 777.76h615.008l-40.256-777.792zM490.080 712.64h41.056v-656.768h-41.056v656.768zM408.896 57.184l-42.016 655.488-40.96-2.656 42.016-655.488 40.96 2.656zM695.616 711.36l-40.96 2.56-41.408-656.768 40.928-2.56 41.44 656.768z" />
<glyph unicode="&#xe652;" glyph-name="delete22" data-tags="delete22" d="M192-64h640l64 704h-768l64-704zM640 832v128h-256v-128h-320v-192l64 64h768l64-64v192h-320zM576 832h-128v64h128v-64z" />
<glyph unicode="&#xe653;" glyph-name="delete-full" data-tags="delete-full" d="M696.064 834.56v40.992c0 45.28-36.672 81.984-82.016 81.984h-204.928c-45.28 0-81.984-36.704-81.984-81.984v-40.992h-204.96v-40.992h42.208l41.088-778.88c0-45.28 36.704-82.016 81.984-82.016h450.912c45.248 0 82.016 36.704 82.016 82.016l40.256 778.88h40.48v40.992h-205.056zM368.096 875.552c0 22.624 18.368 40.992 40.992 40.992h204.96c22.624 0 40.992-18.368 40.992-40.992v-40.992h-286.976v40.992zM369.12 54.4l-41.952 654.592 40.928 2.656 41.952-654.592-40.928-2.656zM532.096 55.712h-40.992v655.872h40.992v-655.872zM654.976 54.432l-40.896 2.56 41.376 655.872 40.864-2.56-41.344-655.872z" />
<glyph unicode="&#xe654;" glyph-name="description" data-tags="description" d="M597.344 874.656h-341.344c-46.944 0-84.896-38.4-84.896-85.344l-0.416-682.656c0-46.944 37.984-85.344 84.896-85.344h512.416c46.944 0 85.344 38.4 85.344 85.344v512l-256 256zM682.656 192h-341.344v85.344h341.344v-85.344zM682.656 362.656h-341.344v85.344h341.344v-85.344zM554.656 576v234.656l234.656-234.656h-234.656z" />
<glyph unicode="&#xe655;" glyph-name="desktop-mac" data-tags="desktop-mac" d="M896 874.656h-768c-46.944 0-85.344-38.4-85.344-85.344v-512c0-46.944 38.4-85.344 85.344-85.344h298.656l-85.344-128v-42.656h341.344v42.656l-85.344 128h298.656c46.944 0 85.344 38.4 85.344 85.344v512c0 46.944-38.4 85.344-85.312 85.344v0zM896 362.656h-768v426.656h768v-426.656z" />
<glyph unicode="&#xe656;" glyph-name="desktop-windows" data-tags="desktop-windows" d="M896 874.656h-768c-46.944 0-85.344-38.4-85.344-85.344v-512c0-46.944 38.4-85.344 85.344-85.344h298.656v-85.344h-85.344v-85.344h341.344v85.344h-85.344v85.344h298.656c46.944 0 85.344 38.4 85.344 85.344v512c0 46.944-38.4 85.344-85.312 85.344v0zM896 277.344h-768v512h768v-512z" />
<glyph unicode="&#xe657;" glyph-name="directory" data-tags="directory" d="M448 832l128-128h448v-704h-1024v832h448z" />
<glyph unicode="&#xe658;" glyph-name="directory-open" data-tags="directory-open" d="M832 0l192 512h-832l-192-512h832zM128 576l-128-576v832h288l128-128h416v-128h-704z" />
<glyph unicode="&#xe659;" glyph-name="disk" data-tags="disk" d="M781.248 762.496h-541.792l-212.256-231.552v-424.512h964.8v424.512l-210.752 231.552zM256.416 723.904h507.808l175.584-192.96h-295.136c0-72.256-62.816-130.624-135.104-130.624s-135.072 58.4-135.072 130.624h-294.912l176.832 192.96zM953.408 145.024h-887.616v347.328h274.88c18.464-73.856 88.352-130.656 168.928-130.656 80.608 0 150.432 56.768 168.928 130.656h274.88v-347.328z" />
<glyph unicode="&#xe65a;" glyph-name="dns" data-tags="dns" d="M853.344 405.344h-682.656c-23.456 0-42.656-19.232-42.656-42.656v-256c0-23.424 19.2-42.656 42.656-42.656h682.656c23.456 0 42.656 19.232 42.656 42.656v256c0 23.424-19.2 42.656-42.656 42.656zM298.656 149.344c-46.944 0-85.344 38.4-85.344 85.344s38.4 85.344 85.344 85.344 85.344-38.4 85.344-85.344-38.4-85.344-85.344-85.344zM853.344 832h-682.656c-23.456 0-42.656-19.2-42.656-42.656v-256c0-23.456 19.2-42.656 42.656-42.656h682.656c23.456 0 42.656 19.2 42.656 42.656v256c0 23.456-19.2 42.656-42.656 42.656zM298.656 576c-46.944 0-85.344 38.4-85.344 85.344s38.4 85.344 85.344 85.344 85.344-38.4 85.344-85.344-38.4-85.344-85.344-85.344z" />
<glyph unicode="&#xe65b;" glyph-name="dock" data-tags="dock" d="M341.344-21.344h341.344v85.344h-341.344v-85.344zM682.656 916.896l-341.344 0.416c-46.944 0-85.344-38.4-85.344-85.344v-597.344c0-46.944 38.4-85.344 85.344-85.344h341.344c46.944 0 85.344 38.4 85.344 85.344v597.344c0 46.944-38.4 84.896-85.344 84.928v0zM682.656 320h-341.344v426.656h341.344v-426.656z" />
<glyph unicode="&#xe65c;" glyph-name="done" data-tags="done" d="M384 268.8l-179.2 179.2-59.744-59.744 238.944-238.944 512 512-59.744 59.744-452.256-452.256z" />
<glyph unicode="&#xe65d;" glyph-name="download" data-tags="download" d="M512 384l256 256h-192v256h-128v-256h-192l256-256zM744.736 488.736l-71.744-71.744 260.096-96.992-421.056-157.024-421.056 157.024 260.064 96.992-71.744 71.744-279.264-104.736v-256l512-192 512 192v256l-279.296 104.736z" />
<glyph unicode="&#xe65e;" glyph-name="drawer" data-tags="drawer" d="M1016.992 468l-256 320c-6.080 7.584-15.232 12-24.992 12h-448c-9.728 0-18.912-4.416-24.992-12l-256-320c-4.544-5.664-7.008-12.736-7.008-20v-288c0-35.36 28.64-64 64-64h896c35.36 0 64 28.64 64 64v288c0 7.264-2.464 14.304-7.008 20zM960 416h-224l-128-128h-192l-128 128h-224v20.768l239.392 299.232h417.248l239.392-299.232-0.032-20.768zM736 608h-448c-17.664 0-32 14.336-32 32s14.336 32 32 32h448c17.696 0 32-14.336 32-32s-14.304-32-32-32zM800 480h-576c-17.664 0-32 14.336-32 32s14.336 32 32 32h576c17.696 0 32-14.336 32-32s-14.304-32-32-32z" />
<glyph unicode="&#xe65f;" glyph-name="drawer2" data-tags="drawer2" d="M1016.992 468l-256 320c-6.080 7.584-15.232 12-24.992 12h-448c-9.728 0-18.912-4.416-24.992-12l-256-320c-4.544-5.664-7.008-12.736-7.008-20v-288c0-35.36 28.64-64 64-64h896c35.36 0 64 28.64 64 64v288c0 7.264-2.464 14.304-7.008 20zM960 416h-224l-128-128h-192l-128 128h-224v20.768l239.392 299.232h417.248l239.392-299.232-0.032-20.768z" />
<glyph unicode="&#xe660;" glyph-name="edit" data-tags="edit" d="M128 224v-160h160l471.904 471.904-160 160-471.904-471.904zM883.616 659.616c16.64 16.64 16.64 43.52 0 60.16l-99.84 99.84c-16.672 16.64-43.52 16.64-60.16 0l-78.080-78.080 160-160 78.080 78.080z" />
<glyph unicode="&#xe661;" glyph-name="email" data-tags="email" d="M853.344 789.344h-682.656c-46.944 0-84.896-38.4-84.896-85.344l-0.416-512c0-46.944 38.4-85.344 85.344-85.344h682.656c46.944 0 85.344 38.4 85.344 85.344v512c0 46.944-38.4 85.344-85.376 85.344v0zM853.344 618.656l-341.344-213.344-341.344 213.344v85.344l341.344-213.344 341.344 213.344v-85.344z" />
<glyph unicode="&#xe662;" glyph-name="email2" data-tags="email2" d="M905.472 715.904h-813.76v-542.88h848.288v542.88h-34.528zM871.552 681.952l-327.712-327.712c-14.912-14.944-41.024-14.944-55.936 0l-327.776 327.712h711.424zM125.664 668.448l220.32-220.256-220.32-220.32v440.576zM152.704 206.944l217.312 217.248 93.888-93.952c13.856-13.888 32.352-21.504 51.968-21.504s38.112 7.616 51.968 21.504l93.92 93.952 217.248-217.248h-726.304zM906.048 227.808l-220.32 220.352 220.32 220.352v-440.704z" />
<glyph unicode="&#xe663;" glyph-name="email-full" data-tags="email-full" d="M345.472 447.488l-254.976 254.944v-509.952l254.976 255.008zM543.872 353.344l362.496 362.464h-781.152l362.528-362.464c15.008-15.008 41.12-15.008 56.128 0zM662.048 423.424l-94.112-94.112c-13.952-13.952-32.448-21.6-52.128-21.6-19.712 0-38.208 7.648-52.128 21.6l-94.144 94.048-251.936-251.872h796.416l-251.968 251.936zM686.112 447.488l254.88-254.848v509.664l-254.88-254.816z" />
<glyph unicode="&#xe664;" glyph-name="error" data-tags="error" d="M512 901.408c-251.456 0-455.104-203.648-455.104-455.104s203.648-455.136 455.104-455.136c251.424 0 455.136 203.648 455.136 455.136 0 251.456-203.712 455.104-455.136 455.104zM568.864 220.448h-113.76v113.824h113.76v-113.824zM568.864 391.136h-113.76v284.416h113.76v-284.416z" />
<glyph unicode="&#xe665;" glyph-name="error-outline" data-tags="error-outline" d="M469.344 320h85.344v-85.344h-85.344v85.344zM469.344 661.344h85.344v-256h-85.344v256zM511.584 874.656c-235.52 0-426.24-191.136-426.24-426.656 0-235.488 190.72-426.656 426.24-426.656 235.936 0 427.104 191.168 427.104 426.656 0 235.52-191.136 426.656-427.104 426.656zM512 106.656c-188.576 0-341.344 152.704-341.344 341.344 0 188.608 152.736 341.344 341.344 341.344 188.64 0 341.344-152.736 341.344-341.344 0-188.64-152.704-341.344-341.344-341.344z" />
<glyph unicode="&#xe666;" glyph-name="expand-less" data-tags="expand-less" d="M512 699.36l-377.056-377.056 88.832-88.832 288.256 288.256 288.256-288.256 88.832 88.832-377.12 377.056z" />
<glyph unicode="&#xe667;" glyph-name="expand-more" data-tags="expand-more" d="M819.424 676.8l-307.424-307.456-307.456 307.456-94.752-94.752 402.208-402.208 402.176 402.208-94.752 94.752z" />
<glyph unicode="&#xe668;" glyph-name="exposure-neg-1" data-tags="exposure-neg-1" d="M170.656 490.656v-85.344h341.344v85.344h-341.344zM810.656 192h-85.344v453.12l-128-43.52v72.544l200.576 72.544h12.768v-554.688z" />
<glyph unicode="&#xe669;" glyph-name="exposure-neg-2" data-tags="exposure-neg-2" d="M642.112 264.96l122.016 130.976c16.224 16.64 30.72 33.696 44.416 50.336 13.632 16.64 25.184 33.28 34.944 49.92 9.856 16.64 17.536 33.28 23.072 49.92s8.096 33.696 8.096 50.336c0 22.624-3.84 43.52-11.52 62.304s-18.752 34.56-33.248 47.36c-14.496 13.216-32.864 23.040-53.792 30.304-21.792 6.816-46.080 10.24-73.376 10.24-29.44 0-55.904-4.704-78.944-13.664s-42.656-21.76-58.016-37.536c-15.744-15.776-27.744-34.144-35.808-55.456-7.712-20.064-11.52-41.376-11.968-64h91.296c0.416 13.216 2.144 25.6 5.536 37.12 3.84 12.384 9.824 23.040 17.056 32 7.68 8.96 17.504 15.776 28.992 20.896 11.552 5.12 25.632 7.68 40.992 7.68 13.184 0 24.704-2.144 34.56-6.4 9.824-4.256 18.336-10.656 25.184-18.336s11.936-17.056 15.776-27.744c3.424-10.656 5.536-22.176 5.536-34.56 0-9.376-1.28-18.336-3.392-27.744-2.56-9.376-6.4-19.2-12.384-29.856-6.016-10.656-13.696-22.624-23.936-35.424-9.824-12.8-22.144-27.744-37.504-43.936l-177.952-194.112v-63.584h368.224v72.96h-253.856zM85.344 490.656v-85.344h341.344v85.344h-341.344z" />
<glyph unicode="&#xe66a;" glyph-name="exposure-plus-1" data-tags="exposure-plus-1" d="M426.656 661.344h-85.344v-170.656h-170.656v-85.344h170.656v-170.656h85.344v170.656h170.656v85.344h-170.656v170.656zM853.344 192h-85.344v453.12l-128-43.52v72.544l200.576 72.544h12.768v-554.688z" />
<glyph unicode="&#xe66b;" glyph-name="exposure-plus-2" data-tags="exposure-plus-2" d="M684.8 264.96l122.016 130.976c16.256 16.64 30.72 33.696 44.384 50.336 13.696 16.64 25.184 33.28 35.008 49.92s17.504 33.28 23.040 49.92 8.096 33.696 8.096 50.336c0 22.624-3.84 43.52-11.488 62.304-7.68 18.784-18.816 34.56-33.312 47.36-14.496 13.216-32.864 23.040-53.76 30.304-21.76 6.816-46.048 10.24-73.376 10.24-29.44 0-55.904-4.704-78.944-13.664-23.072-8.96-42.656-21.76-58.016-37.536-15.808-15.776-27.776-34.144-35.872-55.456-7.68-20.064-11.488-41.376-11.936-64h91.328c0.448 13.216 2.112 25.6 5.536 37.12 3.84 12.384 9.856 23.040 17.056 32 7.648 8.96 17.504 15.776 29.024 20.896 11.488 5.12 25.6 7.68 40.928 7.68 13.248 0 24.736-2.144 34.56-6.4s18.336-10.656 25.184-18.336c6.816-7.68 11.936-17.056 15.776-27.744 3.392-10.656 5.536-22.176 5.536-34.56 0-9.376-1.28-18.336-3.424-27.744-2.56-9.376-6.368-19.2-12.384-29.856-5.984-10.656-13.664-22.624-23.872-35.424-9.856-12.8-22.176-27.744-37.568-43.936l-177.92-194.112v-63.584h368.224v72.96h-253.824zM341.344 661.344h-85.344v-170.656h-170.656v-85.344h170.656v-170.656h85.344v170.656h170.656v85.344h-170.656v170.656z" />
<glyph unicode="&#xe66c;" glyph-name="exposure-zero" data-tags="exposure-zero" d="M688.64 426.656c0-42.656-4.256-78.944-12.768-108.768-8.544-29.888-20.48-54.176-35.392-72.576-15.36-18.784-33.728-32-55.488-40.576-21.76-8.544-45.632-12.768-72.512-12.768-26.464 0-50.336 4.256-72.096 12.768-21.76 8.576-40.544 21.792-55.904 40.576s-27.744 43.136-36.256 72.576c-8.544 29.856-12.8 66.112-12.8 108.768v87.040c0 42.656 4.256 78.944 12.8 108.8s20.48 53.76 35.84 72.096c15.36 18.336 34.144 31.584 55.904 39.68 21.28 8.096 45.6 12.384 72.032 12.384 26.88 0 50.784-4.256 72.576-12.384 21.76-8.128 40.544-21.344 55.872-39.68 15.36-18.336 27.328-42.24 35.84-72.096 8.544-29.856 12.8-65.696 12.8-108.8v-87.040h-0.448zM598.624 527.36c0 27.296-2.112 50.336-5.536 69.12-3.84 18.784-9.376 33.696-17.056 45.216-7.296 11.52-16.672 19.616-27.296 24.736-10.688 5.536-23.040 8.096-36.704 8.096s-26.016-2.56-36.704-7.68c-10.688-5.12-20.064-13.216-27.296-24.736-7.264-11.52-13.216-26.464-17.056-45.216s-5.536-41.824-5.536-69.12v-113.92c0-27.328 2.144-50.368 5.984-69.12 3.84-19.232 9.824-34.56 17.056-46.496s16.64-20.512 27.296-26.016 23.040-8.096 37.12-8.096 26.496 2.56 37.12 8.096c10.688 5.536 19.616 14.080 26.88 26.016 7.296 11.936 12.8 27.296 16.672 46.496 3.84 19.2 5.536 42.208 5.536 69.12v113.504h-0.48z" />
<glyph unicode="&#xe66d;" glyph-name="favorite" data-tags="favorite" d="M512 49.056l-61.856 56.32c-219.744 199.264-364.8 330.656-364.8 491.936 0 131.424 103.264 234.656 234.656 234.656 74.24 0 145.504-34.56 192-89.184 46.496 54.624 117.76 89.184 192 89.184 131.424 0 234.656-103.264 234.656-234.656 0-161.28-145.056-292.672-364.768-492.384l-61.888-55.872z" />
<glyph unicode="&#xe66e;" glyph-name="favorite-border" data-tags="favorite-border" d="M704 832c-74.24 0-145.504-34.56-192-89.184-46.496 54.624-117.76 89.184-192 89.184-131.424 0-234.656-103.264-234.656-234.656 0-161.28 145.056-292.704 364.8-492.384l61.856-55.904 61.888 56.32c219.712 199.264 364.768 330.656 364.768 491.936 0 131.424-103.296 234.656-234.656 234.688v0zM516.256 168.576l-4.256-4.288-4.256 4.288c-203.104 183.872-337.056 305.472-337.056 428.768 0 85.344 64 149.344 149.344 149.344 65.696 0 129.696-42.24 152.32-100.704h79.776c22.176 58.464 86.176 100.704 151.904 100.704 85.344 0 149.344-64 149.344-149.344 0-123.296-134.016-244.896-337.056-428.768h-0.064z" />
<glyph unicode="&#xe66f;" glyph-name="file-download" data-tags="file-download" d="M810.656 576h-170.656v256h-256v-256h-170.656l298.656-298.656 298.656 298.656zM213.344 192v-85.344h597.344v85.344h-597.344z" />
<glyph unicode="&#xe670;" glyph-name="file-upload" data-tags="file-upload" d="M384 277.344h256v256h170.656l-298.656 298.656-298.656-298.656h170.656v-256zM213.344 192h597.344v-85.344h-597.344v85.344z" />
<glyph unicode="&#xe67a;" glyph-name="filter-drama" data-tags="filter-drama" d="M825.6 531.616c-29.024 147.2-158.272 257.696-313.6 257.696-123.296 0-229.984-69.984-283.296-172.384-128.416-13.664-228.704-122.016-228.704-254.304 0-141.216 114.784-256 256-256h554.656c117.792 0 213.344 95.552 213.344 213.344 0 112.64-87.424 203.936-198.4 211.648v0zM810.656 192h-554.656c-94.304 0-170.656 76.384-170.656 170.656s76.384 170.656 170.656 170.656 170.656-76.384 170.656-170.656h85.344c0 117.76-79.36 216.736-187.744 246.624 43.104 57.184 110.944 94.72 187.744 94.72 129.28 0 234.656-105.376 234.656-234.656v-21.344h64c70.4 0 128-57.6 128-128s-57.6-128-128-128z" />
<glyph unicode="&#xe67b;" glyph-name="filter-tilt-shift" data-tags="filter-tilt-shift" d="M469.344 786.336v86.176c-85.76-8.544-163.84-42.656-226.976-94.304l60.576-61.024c47.36 36.704 104.096 61.44 166.4 69.152v0zM781.696 778.24c-63.168 51.616-141.248 85.76-227.008 94.304v-86.176c62.304-7.68 119.072-32.416 166.4-69.12l60.608 60.992zM850.304 490.656h86.176c-8.544 85.76-42.624 163.84-94.304 226.976l-60.992-60.576c36.704-47.36 61.44-104.096 69.12-166.4v0zM242.784 657.056l-61.024 60.576c-51.616-63.136-85.76-141.216-94.304-226.976h86.176c7.68 62.304 32.416 119.040 69.152 166.4v0zM173.664 405.344h-86.176c8.544-85.792 42.656-163.84 94.304-226.976l61.024 60.992c-36.704 46.976-61.44 103.712-69.152 165.984v0zM640 448c0 70.816-57.184 128-128 128s-128-57.184-128-128 57.184-128 128-128 128 57.184 128 128zM781.216 238.944l61.024-60.992c51.616 63.136 85.76 141.632 94.304 226.944h-86.176c-7.68-61.856-32.416-118.656-69.152-165.952v0zM554.656 109.664v-86.144c85.792 8.544 163.84 42.624 226.976 94.304l-60.992 60.992c-46.944-36.704-103.712-61.44-165.984-69.152v0zM242.336 117.76c63.136-51.648 141.664-85.76 226.976-94.336v86.176c-62.304 7.68-119.040 32.448-166.4 69.12l-60.576-60.96z" />
<glyph unicode="&#xe67c;" glyph-name="firefox" data-tags="firefox" d="M1022.528 625.856l-11.872-76.064c0 0-16.96 140.864-37.728 193.504-31.84 80.672-46.016 80.032-46.112 79.936 21.344-54.208 17.472-83.328 17.472-83.328s-37.792 103.008-137.696 135.776c-110.688 36.288-170.56 26.368-177.504 24.48-1.056 0-2.016 0-3.040 0 0.8-0.064 1.568-0.16 2.432-0.224-0.064-0.032-0.128-0.032-0.128-0.064 0.448-0.544 122.304-21.312 143.904-51.008 0 0-51.712 0-103.264-14.848-2.336-0.672 189.536-23.968 228.704-215.68 0 0-20.992 43.872-47.040 51.328 17.12-52.032 12.704-150.784-3.584-199.84-2.080-6.304-4.256 27.296-36.32 41.76 10.272-73.632-0.64-190.464-51.68-222.624-4-2.496 32 115.296 7.2 69.76-142.688-218.816-311.36-100.96-387.2-49.12 38.88-8.448 112.64 1.312 145.312 25.6 0.032 0.064 0.064 0.064 0.128 0.128 35.456 24.256 56.48 41.952 75.328 37.76s31.424 14.72 16.736 31.488c-14.688 16.832-50.304 40-98.528 27.36-34.016-8.896-76.128-46.528-140.448-8.448-49.376 29.248-54.016 53.536-54.464 70.368 1.216 5.952 2.752 11.552 4.576 16.64 5.696 15.872 22.912 20.672 32.48 24.448 16.256-2.784 30.272-7.872 44.96-15.392 0.192 4.896 0.256 11.392-0.032 18.752 1.408 2.816 0.544 11.264-1.728 21.568-1.312 10.304-3.424 20.96-6.752 30.688h0.032c0.064 0.032 0.096 0.032 0.16 0.064s0.16 0.128 0.224 0.192c0 0.032 0.032 0.032 0.032 0.064 0.096 0.128 0.16 0.256 0.192 0.48 1.024 4.608 12.032 13.536 25.728 23.104 12.256 8.576 26.688 17.696 38.080 24.768 10.048 6.24 17.728 10.88 19.36 12.096 0.608 0.48 1.344 1.024 2.176 1.632 0.16 0.128 0.288 0.224 0.448 0.352 0.096 0.064 0.192 0.16 0.288 0.224 5.408 4.32 13.472 12.448 15.168 29.568 0 0.032 0 0.064 0 0.128 0.064 0.512 0.096 1.024 0.128 1.536 0.032 0.352 0.064 0.736 0.064 1.088 0 0.288 0.032 0.576 0.032 0.864 0.032 0.672 0.064 1.376 0.064 2.080 0 0.032 0 0.064 0 0.128 0.032 1.664 0 3.392-0.096 5.216-0.064 1.024-0.128 1.92-0.288 2.752 0 0.032-0.032 0.096-0.032 0.128-0.032 0.096-0.032 0.16-0.064 0.256-0.032 0.16-0.064 0.288-0.128 0.416 0 0.032 0 0.032-0.032 0.032-0.064 0.16-0.128 0.32-0.16 0.448 0 0 0 0 0 0.032-1.76 4.096-8.32 5.664-35.456 6.112-0.032 0-0.064 0-0.064 0v0c-11.072 0.192-25.536 0.192-44.512 0.128-33.248-0.128-51.616 32.512-57.504 45.12 8.032 44.448 31.264 76.128 69.44 97.632 0.736 0.416 0.576 0.736-0.288 0.992 7.456 4.512-90.24 0.128-135.2-57.024-39.84 9.92-74.592 9.248-104.544 2.208-5.76 0.16-12.928 0.864-21.44 2.656-19.936 18.048-48.448 51.392-49.984 91.2 0 0-0.096-0.064-0.256-0.192-0.032 0.384-0.064 0.768-0.064 1.152 0 0-60.704-46.656-51.616-173.888-0.032-2.048-0.064-4-0.128-5.888-16.448-22.272-24.576-41.024-25.184-45.152-14.56-29.632-29.344-74.24-41.344-141.984 0 0 8.416 26.656 25.28 56.864-12.416-38.016-22.176-97.152-16.448-185.856 0 0 1.504 19.68 6.88 48 4.192-55.008 22.528-122.912 68.864-202.784 88.96-153.312 225.664-230.752 376.8-242.624 26.848-2.176 54.048-2.24 81.408-0.192 2.528 0.192 5.024 0.352 7.52 0.576 31.008 2.176 62.176 6.88 93.248 14.368 425.216 102.816 378.976 616.192 378.976 616.192l0.128 0.032z" />
<glyph unicode="&#xe67d;" glyph-name="flag" data-tags="flag" d="M614.4 704l-17.056 85.344h-384v-725.344h85.344v298.656h238.944l17.056-85.344h298.656v426.656l-238.944 0.032z" />
<glyph unicode="&#xe67e;" glyph-name="flag2" data-tags="flag2" d="M890.816 924.672c-0.8-0.256-82.72-28.352-212.256-28.352-66.016 0-128.928 13.408-189.696 26.336-61.44 13.12-125.024 26.656-192.32 26.656-134.208 0-179.68-28.832-184.48-32.128l-9.76-6.752v-961.952h45.504v434.944c18.144 7.136 62.464 19.68 148.768 19.68 62.496 0 120.96-12.48 182.848-25.632 63.072-13.504 128.352-27.36 199.168-27.36 137.92 0 223.776 29.632 227.328 30.912l15.232 5.376v548.832l-30.336-10.56zM875.616 419.424c-29.44-8-99.872-23.776-197.088-23.776-66.016 0-128.928 13.376-189.696 26.336-61.44 13.12-125.024 26.656-192.32 26.656-73.696 0-120.608-8.672-148.768-17.088v452.704c18.208 7.008 62.72 19.584 148.768 19.584 62.496 0 120.96-12.48 182.848-25.632 63.072-13.472 128.352-27.36 199.168-27.36 91.584 0 160.256 13.056 197.088 22.208v-453.632z" />
<glyph unicode="&#xe67f;" glyph-name="folder" data-tags="folder" d="M568.864 675.552l-113.76 113.792h-284.448c-31.296 0-56.896-25.6-56.896-56.896v-568.896c0-31.328 25.6-56.896 56.896-56.896h682.656c31.328 0 56.864 25.6 56.864 56.896v455.104c0 31.296-25.568 56.896-56.864 56.896h-284.448z" />
<glyph unicode="&#xe680;" glyph-name="folder2" data-tags="folder2" d="M935.072 749.344h-533.984v41.056c0 45.376-36.768 82.144-82.144 82.144h-205.376c-45.376 0-82.144-36.768-82.144-82.144v-698.272c0-45.312 36.768-82.112 82.144-82.112h821.504c45.376 0 82.112 36.8 82.112 82.112v575.040c0 45.376-36.736 82.144-82.112 82.176v0zM72.512 790.4c0 22.656 18.464 41.088 41.088 41.088h205.376c22.624 0 41.088-18.4 41.088-41.088v-82.144h575.008c22.624 0 41.056-18.4 41.056-41.056v-41.088h-903.616v164.288zM935.072 51.072h-821.504c-22.624 0-41.088 18.464-41.088 41.088v492.896h903.616v-492.896c0-22.624-18.464-41.088-41.024-41.088z" />
<glyph unicode="&#xe681;" glyph-name="folder-open" data-tags="folder-open" d="M853.344 675.552h-284.48l-113.76 113.792h-284.448c-31.296 0-56.896-25.6-56.896-56.896v-568.896c0-31.328 25.6-56.896 56.896-56.896h682.656c31.328 0 56.864 25.6 56.864 56.896v455.104c0 31.296-25.536 56.896-56.832 56.896v0zM796.448 220.448h-568.896v341.344h568.896v-341.344z" />
<glyph unicode="&#xe682;" glyph-name="folder-shared" data-tags="folder-shared" d="M910.176 732.448h-341.312l-113.792 113.792h-341.344c-31.296 0-56.896-25.6-56.896-56.896v-682.656c0-31.328 25.6-56.864 56.896-56.864h796.448c31.296 0 56.864 25.568 56.864 56.864v568.896c0.032 31.296-25.568 56.896-56.864 56.864v0zM654.176 576c55.2 0 99.552-44.384 99.552-99.552s-44.384-99.584-99.552-99.584c-55.136 0-99.52 44.416-99.52 99.584s44.416 99.552 99.52 99.552zM853.344 163.552h-398.208v71.104c0 66.56 132.544 99.52 199.104 99.52s199.104-32.96 199.104-99.52v-71.104z" />
<glyph unicode="&#xe683;" glyph-name="forward" data-tags="forward" d="M512 618.656v170.656l341.344-341.344-341.344-341.344v170.656h-341.344v341.344l341.344 0.032z" />
<glyph unicode="&#xe684;" glyph-name="forward2" data-tags="forward2" d="M262.144 960c-113.728-206.048-132.896-520.288 313.856-509.824v253.824l384-384-384-384v248.384c-534.976-13.952-594.56 472.224-313.856 775.616z" />
<glyph unicode="&#xe685;" glyph-name="grade" data-tags="grade" d="M512 223.136l263.68-159.136-70.016 299.936 232.96 201.824-306.784 26.016-119.904 282.88-119.904-282.88-306.752-26.016 232.96-201.824-69.984-299.936 263.744 159.136z" />
<glyph unicode="&#xe687;" glyph-name="group-add" data-tags="group-add" d="M512 504.896c63.136 0 113.824 51.2 113.824 113.792s-50.624 113.792-113.824 113.792c-62.592 0-113.792-51.2-113.792-113.792s51.2-113.792 113.792-113.792zM739.552 504.896c63.136 0 113.792 51.2 113.792 113.792s-50.624 113.792-113.792 113.792c-20.512 0-39.296-5.696-55.744-15.36 17.056-29.024 27.328-62.592 27.328-98.432s-10.24-69.408-27.328-98.432c16.512-9.664 35.808-15.36 55.744-15.36zM512 436.608c-95.008 0-284.448-47.232-284.448-142.208v-73.984h568.896v73.984c0 95.008-189.44 142.208-284.448 142.208zM284.448 561.792h-113.792v113.792h-56.896v-113.792h-113.792v-56.896h113.792v-113.76h56.896v113.76h113.792v56.896zM809.536 430.368c42.656-34.144 72.288-78.496 72.288-135.968v-73.984h142.176v73.984c0 74.528-117.76 120.032-214.464 135.968z" />
<glyph unicode="&#xe688;" glyph-name="help" data-tags="help" d="M512 874.656c-235.52 0-426.656-191.136-426.656-426.656 0-235.488 191.136-426.656 426.656-426.656 235.488 0 426.656 191.168 426.656 426.656 0 235.52-191.168 426.656-426.656 426.656zM554.656 149.344h-85.344v85.344h85.344v-85.344zM642.976 480l-38.4-39.264c-30.688-31.136-49.92-56.736-49.92-120.736h-85.344v21.344c0 46.944 19.2 89.6 49.92 120.736l52.896 53.76c15.776 15.36 25.184 36.704 25.184 60.16 0 46.944-38.4 85.344-85.344 85.344s-85.344-38.4-85.344-85.344h-85.344c0 94.304 76.384 170.656 170.656 170.656 94.24 0 170.656-76.384 170.656-170.656 0-37.536-15.328-71.68-39.68-96h0.064z" />
<glyph unicode="&#xe689;" glyph-name="help-outline" data-tags="help-outline" d="M469.344 192h85.344v85.344h-85.344v-85.344zM512 874.656c-235.52 0-426.656-191.136-426.656-426.656 0-235.488 191.136-426.656 426.656-426.656 235.488 0 426.656 191.168 426.656 426.656 0 235.52-191.168 426.656-426.656 426.656zM512 106.656c-188.16 0-341.344 153.184-341.344 341.344s153.184 341.344 341.344 341.344 341.344-153.184 341.344-341.344-153.184-341.344-341.344-341.344zM512 704c-94.304 0-170.656-76.384-170.656-170.656h85.344c0 46.944 38.4 85.344 85.344 85.344s85.344-38.4 85.344-85.344c0-85.344-128-74.656-128-213.344h85.344c0 96 128 106.656 128 213.344 0 94.304-76.416 170.656-170.656 170.656h-0.064z" />
<glyph unicode="&#xe68a;" glyph-name="highlight-off" data-tags="highlight-off" d="M622.496 618.656l-110.496-110.496-110.496 110.496-60.16-60.16 110.496-110.496-110.496-110.496 60.16-60.16 110.496 110.496 110.496-110.496 60.16 60.16-110.496 110.496 110.496 110.496-60.16 60.16zM512 874.656c-235.936 0-426.656-190.72-426.656-426.656s190.72-426.656 426.656-426.656 426.656 190.72 426.656 426.656-190.72 426.656-426.656 426.656zM512 106.656c-188.16 0-341.344 153.184-341.344 341.344s153.184 341.344 341.344 341.344 341.344-153.184 341.344-341.344-153.184-341.344-341.344-341.344z" />
<glyph unicode="&#xe68b;" glyph-name="home" data-tags="home" d="M408.448 33.76v310.688h207.104v-310.688h258.944v414.24h155.36l-517.824 466.048-517.824-466.048h155.328v-414.24h258.912z" />
<glyph unicode="&#xe68c;" glyph-name="home2" data-tags="home2" d="M1024 369.568l-512 397.44-512-397.44v162.048l512 397.44 512-397.44v-162.048zM896 384v-384h-256v256h-256v-256h-256v384l384 288 384-288z" />
<glyph unicode="&#xe68d;" glyph-name="home3" data-tags="home3" d="M1024 352l-192 192v288h-128v-160l-192 192-512-512v-32h128v-320h320v192h128v-192h320v320h128v32z" />
<glyph unicode="&#xe68e;" glyph-name="html5" data-tags="html5" d="M60.544 960l82.144-921.632 368.768-102.368 369.728 102.528 82.304 921.472h-902.944zM784.64 658.56h-432.544l10.304-115.744h411.968l-31.072-347.008-231.84-64.256-231.584 64.256-15.84 177.504h113.504l8.064-90.24 125.856-33.92 0.288 0.064 125.92 33.984 13.056 146.56h-391.712l-30.496 341.792h566.208l-10.080-112.992z" />
<glyph unicode="&#xe68f;" glyph-name="html52" data-tags="html52" d="M60.544 960l82.144-921.632 368.768-102.368 369.728 102.528 82.304 921.472h-902.944zM810.752 97.184l-297.216-82.368v-0.48l-0.768 0.224-0.768-0.224v0.48l-297.216 82.368-70.24 787.488h736.48l-70.272-787.488zM650.752 429.824l-13.056-146.56-126.208-34.080-125.856 33.92-8.064 90.24h-113.504l15.84-177.504 232.064-64.192 231.328 64.192 31.008 347.008h-411.936l-10.304 115.712h432.576l10.080 113.024h-566.208l30.496-341.76h391.744z" />
<glyph unicode="&#xe690;" glyph-name="http" data-tags="http" d="M192 490.656h-85.344v85.344h-64v-256h64v106.656h85.344v-106.656h64v256h-64v-85.344zM298.656 512h64v-192h64v192h64v64h-192v-64zM533.344 512h64v-192h64v192h64v64h-192v-64zM917.344 576h-149.344v-256h64v85.344h85.344c34.144 0 64 29.856 64 64v42.656c0 34.144-29.856 64-64 64zM917.344 469.344h-85.344v42.656h85.344v-42.656z" />
<glyph unicode="&#xe691;" glyph-name="https" data-tags="https" d="M768 618.656h-42.656v85.344c0 117.76-95.584 213.344-213.344 213.344s-213.344-95.584-213.344-213.344v-85.344h-42.656c-46.944 0-85.344-38.4-85.344-85.344v-426.656c0-46.944 38.4-85.344 85.344-85.344h512c46.944 0 85.344 38.4 85.344 85.344v426.656c0 46.944-38.4 85.344-85.344 85.344zM512 234.656c-46.944 0-85.344 38.4-85.344 85.344s38.4 85.344 85.344 85.344 85.344-38.4 85.344-85.344-38.4-85.344-85.344-85.344zM644.256 618.656h-264.544v85.344c0 72.96 59.296 132.256 132.256 132.256s132.256-59.296 132.256-132.256l0.032-85.344z" />
<glyph unicode="&#xe692;" glyph-name="ie" data-tags="ie" d="M734.176 331.2h236.064c1.856 16.384 2.56 33.056 2.56 50.176 0 80.224-21.504 155.456-59.136 220.256 38.88 103.296 37.504 190.976-14.56 243.392-49.472 49.28-182.304 41.28-332.384-25.184-11.104 0.832-22.272 1.28-33.632 1.28-206.048 0-378.912-141.792-426.72-332.864 64.64 82.752 132.64 142.752 223.488 186.432-8.256-7.744-56.448-55.648-64.576-63.776-239.552-239.456-315.104-552.32-233.792-633.6 61.792-61.76 173.76-51.328 302.368 11.648 59.808-30.464 127.488-47.616 199.232-47.616 193.088 0 356.768 124.32 416.096 297.44h-237.888c-32.704-60.384-96.704-101.472-170.176-101.472s-137.472 41.088-170.208 101.472c-14.56 27.296-22.912 58.56-22.912 91.648v0.768h386.176zM348.288 447.2c5.472 97.12 86.208 174.592 184.768 174.592s179.328-77.472 184.736-174.592h-369.504zM896.928 796.192c33.568-33.888 32.672-96.224 4-174.016-49.088 74.912-120.512 133.952-204.768 167.648 90.080 38.624 163.392 43.744 200.768 6.368v0zM93.472-7.264c-42.784 42.752-29.888 132.608 25.216 240.8 34.304-96.256 101.152-177.056 187.328-229.12-95.424-43.328-173.536-50.656-212.544-11.68v0z" />
<glyph unicode="&#xe693;" glyph-name="inbox" data-tags="inbox" d="M810.656 832h-597.76c-46.944 0-84.48-38.4-84.48-85.344l-0.416-597.344c0-46.944 37.984-85.344 84.896-85.344h597.76c46.944 0 85.344 38.4 85.344 85.344v597.344c0 46.944-38.4 85.344-85.344 85.344zM810.656 320h-170.656c0-70.816-57.184-128-128-128s-128 57.184-128 128h-171.104v426.656h597.76v-426.656zM682.656 533.344h-85.344v128h-170.656v-128h-85.344l170.656-170.656 170.688 170.656z" />
<glyph unicode="&#xe694;" glyph-name="indeter-checkbox" data-tags="indeter-checkbox" d="M810.656 832h-597.344c-46.944 0-85.344-38.4-85.344-85.344v-597.344c0-46.944 38.4-85.344 85.344-85.344h597.344c46.944 0 85.344 38.4 85.344 85.344v597.344c0 46.944-38.4 85.344-85.344 85.344zM725.344 405.344h-426.656v85.344h426.656v-85.344z" />
<glyph unicode="&#xe695;" glyph-name="info" data-tags="info" d="M512 874.656c-235.52 0-426.656-191.136-426.656-426.656 0-235.488 191.136-426.656 426.656-426.656 235.488 0 426.656 191.168 426.656 426.656 0 235.52-191.168 426.656-426.656 426.656zM554.656 234.656h-85.344v256h85.344v-256zM554.656 576h-85.344v85.344h85.344v-85.344z" />
<glyph unicode="&#xe696;" glyph-name="info-outline" data-tags="info-outline" d="M469.344 234.656h85.344v256h-85.344v-256zM512 874.656c-235.52 0-426.656-191.136-426.656-426.656 0-235.488 191.136-426.656 426.656-426.656 235.488 0 426.656 191.168 426.656 426.656 0 235.52-191.168 426.656-426.656 426.656zM512 106.656c-188.16 0-341.344 153.184-341.344 341.344s153.184 341.344 341.344 341.344 341.344-153.184 341.344-341.344-153.184-341.344-341.344-341.344zM469.344 576h85.344v85.344h-85.344v-85.344z" />
<glyph unicode="&#xe697;" glyph-name="info-outline2" data-tags="info-outline2" d="M512.32 631.424c34.048 0 61.696 27.616 61.696 61.696s-27.616 61.696-61.696 61.696c-34.048 0-61.696-27.584-61.696-61.696 0-34.048 27.616-61.696 61.696-61.696zM574.016 549.184v41.12h-123.36v-41.12h41.12v-328.96h-41.12v-41.088h164.512v41.088h-41.12v328.96zM512.32 960.384c-283.872 0-514.016-230.112-514.016-514.016s230.144-514.016 514.016-514.016c283.872 0 514.016 230.112 514.016 514.016-0.032 283.904-230.176 514.016-514.016 514.016v0zM512.32-26.496c-260.768 0-472.864 212.16-472.864 472.864s212.096 472.864 472.864 472.864c260.768 0 472.864-212.16 472.864-472.864s-212.096-472.864-472.864-472.864z" />
<glyph unicode="&#xe698;" glyph-name="input" data-tags="input" d="M896 831.584h-768c-46.944 0-85.344-38.4-85.344-85.344v-170.24h85.344v171.104h768v-598.624h-768v171.52h-85.344v-171.136c0-46.944 38.4-84.448 85.344-84.448h768c46.944 0 85.344 37.504 85.344 84.448v597.376c0 47.36-38.4 85.344-85.344 85.344zM469.344 277.344l170.656 170.656-170.656 170.656v-128h-426.656v-85.344h426.656v-127.968z" />
<glyph unicode="&#xe699;" glyph-name="invert-colors" data-tags="invert-colors" d="M753.504 621.664l-241.504 241.504-241.504-241.504c-133.12-133.12-133.12-349.44 0-482.528 66.56-66.56 154.016-99.872 241.504-99.872s174.944 33.312 241.504 99.872c133.12 133.088 133.12 349.408 0 482.528zM512 124.16c-68.256 0-132.704 26.464-180.896 75.104-48.64 48.64-75.104 112.64-75.104 180.896s26.464 132.704 75.104 180.896l180.896 181.344v-618.24z" />
<glyph unicode="&#xe69a;" glyph-name="keyboard-arrow-down" data-tags="keyboard-arrow-down" d="M316.16 625.504l195.84-195.456 195.84 195.424 60.16-60.16-256-256-256 256 60.16 60.192z" />
<glyph unicode="&#xe69d;" glyph-name="keyboard-arrow-up" data-tags="keyboard-arrow-up" d="M316.16 302.496l195.84 195.424 195.84-195.424 60.16 60.16-256 256-256-256 60.16-60.16z" />
<glyph unicode="&#xe69e;" glyph-name="keyboard-backspace" data-tags="keyboard-backspace" d="M896 490.656h-604.576l152.736 153.184-60.16 60.16-256-256 256-256 60.16 60.16-152.736 153.184h604.576v85.312z" />
<glyph unicode="&#xe69f;" glyph-name="label" data-tags="label" d="M752.224 710.816c-15.328 21.76-40.96 35.84-69.536 35.84l-469.344-0.416c-46.944 0-85.344-37.984-85.344-84.896v-426.656c0-46.944 38.4-84.864 85.344-84.864l469.344-0.448c28.576 0 54.176 14.048 69.536 35.84l186.464 262.816-186.464 262.784z" />
<glyph unicode="&#xe6a0;" glyph-name="label-outline" data-tags="label-outline" d="M752.224 710.816c-15.328 21.76-40.96 35.84-69.536 35.84l-469.344-0.416c-46.944 0-85.344-37.984-85.344-84.896v-426.656c0-46.944 38.4-84.864 85.344-84.864l469.344-0.448c28.576 0 54.176 14.048 69.536 35.84l186.464 262.816-186.464 262.784zM682.656 234.656h-469.344v426.656h469.344l151.456-213.344-151.456-213.312z" />
<glyph unicode="&#xe6a1;" glyph-name="language" data-tags="language" d="M511.584 874.656c-235.52 0-426.24-191.136-426.24-426.656 0-235.488 190.72-426.656 426.24-426.656 235.936 0 427.104 191.168 427.104 426.656 0 235.52-191.136 426.656-427.104 426.656zM807.264 618.656h-125.856c-13.664 53.344-33.28 104.544-58.88 151.904 78.496-26.88 143.776-81.504 184.736-151.904v0zM512 787.616c35.424-51.2 63.136-107.936 81.504-168.96h-162.976c18.336 61.024 46.080 117.76 81.472 168.96v0zM181.76 362.656c-6.816 27.296-11.104 55.904-11.104 85.344s4.256 58.016 11.104 85.344h144.224c-3.424-28.16-5.984-56.32-5.984-85.344s2.56-57.184 5.984-85.344h-144.224zM216.736 277.344h125.856c13.664-53.344 33.28-104.544 58.88-151.904-78.496 26.88-143.776 81.056-184.736 151.904zM342.624 618.656h-125.856c40.96 70.816 106.24 125.024 184.736 151.904-25.6-47.36-45.216-98.56-58.88-151.904zM512 108.384c-35.424 51.2-63.136 107.936-81.504 168.96h162.976c-18.336-61.024-46.112-117.792-81.472-168.96v0zM611.84 362.656h-199.68c-3.84 28.16-6.816 56.32-6.816 85.344s2.976 57.6 6.816 85.344h199.68c3.84-27.744 6.816-56.32 6.816-85.344s-2.976-57.184-6.816-85.344zM622.496 125.44c25.6 47.36 45.216 98.56 58.88 151.904h125.888c-41.024-70.4-106.272-125.024-184.768-151.904zM698.016 362.656c3.424 28.16 5.984 56.32 5.984 85.344s-2.56 57.184-6.016 85.344h144.256c6.816-27.296 11.104-55.904 11.104-85.344s-4.256-58.016-11.104-85.344h-144.224z" />
<glyph unicode="&#xe6a3;" glyph-name="link" data-tags="link" d="M166.4 448c0 72.96 59.296 132.256 132.256 132.256h170.656v81.056h-170.656c-117.76 0-213.344-95.584-213.344-213.344 0-117.792 95.584-213.344 213.344-213.344h170.656v81.056h-170.656c-72.96 0-132.256 59.296-132.256 132.256v0.064zM341.344 405.344h341.344v85.344h-341.344v-85.344zM725.344 661.344h-170.656v-81.056h170.656c72.96 0 132.256-59.296 132.256-132.256s-59.296-132.256-132.256-132.256h-170.656v-81.056h170.656c117.792 0 213.344 95.584 213.344 213.344s-95.552 213.344-213.344 213.344v-0.064z" />
<glyph unicode="&#xe6a4;" glyph-name="list" data-tags="list" d="M128 405.344h85.344v85.344h-85.344v-85.344zM128 234.656h85.344v85.344h-85.344v-85.344zM128 576h85.344v85.344h-85.344v-85.344zM298.656 405.344h597.344v85.344h-597.344v-85.344zM298.656 234.656h597.344v85.344h-597.344v-85.344zM298.656 661.344v-85.344h597.344v85.344h-597.344z" />
<glyph unicode="&#xe6a5;" glyph-name="location-on" data-tags="location-on" d="M512 874.656c-165.12 0-298.656-133.536-298.656-298.656 0-224 298.656-554.656 298.656-554.656s298.656 330.656 298.656 554.656c0 165.12-133.536 298.656-298.656 298.656zM512 469.344c-58.88 0-106.656 47.776-106.656 106.656s47.776 106.656 106.656 106.656 106.656-47.776 106.656-106.656-47.776-106.656-106.656-106.656z" />
<glyph unicode="&#xe6a6;" glyph-name="lock" data-tags="lock" d="M768 618.656h-42.656v85.344c0 117.76-95.584 213.344-213.344 213.344s-213.344-95.584-213.344-213.344v-85.344h-42.656c-46.944 0-85.344-38.4-85.344-85.344v-426.656c0-46.944 38.4-85.344 85.344-85.344h512c46.944 0 85.344 38.4 85.344 85.344v426.656c0 46.944-38.4 85.344-85.344 85.344zM512 234.656c-46.944 0-85.344 38.4-85.344 85.344s38.4 85.344 85.344 85.344 85.344-38.4 85.344-85.344-38.4-85.344-85.344-85.344zM644.256 618.656h-264.544v85.344c0 72.96 59.296 132.256 132.256 132.256s132.256-59.296 132.256-132.256l0.032-85.344z" />
<glyph unicode="&#xe6a7;" glyph-name="lock-open" data-tags="lock-open" d="M512 234.656c46.944 0 85.344 38.4 85.344 85.344s-38.4 85.344-85.344 85.344-85.344-38.4-85.344-85.344 38.4-85.344 85.344-85.344zM768 618.656h-42.656v85.344c0 117.76-95.584 213.344-213.344 213.344s-213.344-95.584-213.344-213.344h81.056c0 72.96 59.296 132.256 132.256 132.256s132.256-59.296 132.256-132.256v-85.344h-388.256c-46.944 0-85.344-38.4-85.344-85.344v-426.656c0-46.944 38.4-85.344 85.344-85.344h512c46.944 0 85.344 38.4 85.344 85.344v426.656c0 46.944-38.4 85.344-85.312 85.344v0zM768 106.656h-512v426.656h512v-426.656z" />
<glyph unicode="&#xe6a8;" glyph-name="lock-outline" data-tags="lock-outline" d="M768 618.656h-42.656v85.344c0 117.76-95.584 213.344-213.344 213.344s-213.344-95.584-213.344-213.344v-85.344h-42.656c-46.944 0-85.344-38.4-85.344-85.344v-426.656c0-46.944 38.4-85.344 85.344-85.344h512c46.944 0 85.344 38.4 85.344 85.344v426.656c0 46.944-38.4 85.344-85.344 85.344zM512 836.256c72.928 0 132.256-59.296 132.256-132.256v-85.344h-260.256v85.344h-4.256c0 72.96 59.296 132.256 132.256 132.256zM768 106.656h-512v426.656h512v-426.656zM512 234.656c46.944 0 85.344 38.4 85.344 85.344s-38.4 85.344-85.344 85.344-85.344-38.4-85.344-85.344 38.4-85.344 85.344-85.344z" />
<glyph unicode="&#xe6a9;" glyph-name="loyalty" data-tags="loyalty" d="M913.504 465.92l-384 384c-15.36 15.36-36.704 24.736-60.16 24.736h-298.656c-46.944 0-85.344-38.4-85.344-85.344v-298.656c0-23.456 9.376-44.8 25.184-60.608l384-384c15.36-15.328 36.704-24.704 60.16-24.704s44.8 9.376 60.16 25.184l298.656 298.656c15.776 15.36 25.184 36.672 25.184 60.16s-9.824 45.216-25.184 60.576zM234.656 661.344c-35.424 0-64 28.576-64 64s28.576 64 64 64 64-28.576 64-64-28.576-64-64-64zM736.864 308.512l-182.176-182.176-182.176 182.176c-19.2 19.584-31.136 46.048-31.136 75.488 0 58.88 47.776 106.656 106.656 106.656 29.44 0 56.32-11.936 75.52-31.584l31.136-30.72 31.136 31.136c19.232 19.2 46.080 31.136 75.52 31.136 58.88 0 106.656-47.776 106.656-106.656 0-29.44-11.936-56.32-31.136-75.52v0.064z" />
<glyph unicode="&#xe6ab;" glyph-name="man" data-tags="man" d="M513.664 935.968c-267.392 0-484.128-216.736-484.128-484.128s216.736-484.128 484.128-484.128c267.392 0 484.128 216.704 484.128 484.128 0.032 267.392-216.736 484.128-484.128 484.128zM513.664 895.616c244.704 0 443.776-199.072 443.776-443.776 0-107.68-38.624-206.496-102.656-283.456-43.84 18.4-148.288 54.688-213.248 73.952-5.504 1.728-6.4 1.952-6.4 24.928 0 18.944 7.808 38.016 15.424 54.144 8.224 17.568 18.016 47.104 21.504 73.568 9.824 11.392 23.2 33.856 31.744 76.64 7.488 37.76 4.032 51.456-0.992 64.384-0.512 1.344-1.056 2.688-1.408 4.032-1.92 8.832 0.672 54.816 7.168 90.464 4.448 24.48-1.184 76.512-34.816 119.52-21.248 27.2-62.016 60.608-136.352 65.248l-40.768-0.032c-73.088-4.608-113.792-38.016-135.072-65.216-33.728-43.008-39.328-95.072-34.816-119.52 6.464-35.648 9.056-81.632 7.168-90.304-0.384-1.504-0.96-2.848-1.504-4.16-4.96-12.928-8.512-26.624-0.96-64.384 8.576-42.784 21.888-65.248 31.744-76.672 3.456-26.432 13.248-55.968 21.504-73.568 6.080-12.8 8.864-30.304 8.864-55.008 0-22.944-0.832-23.264-6.016-24.864-66.912-19.744-173.184-58.176-212.832-75.488-65.28 77.312-104.832 176.928-104.832 285.824 0 244.704 199.072 443.776 443.776 443.776v-0.032zM204 134.56c45.408 18.528 135.84 50.784 195.328 68.384 34.592 10.88 34.592 40.032 34.592 63.424 0 19.36-1.312 48-12.672 72.192-7.808 16.576-16.704 44.992-18.624 67.2-0.48 5.216-2.912 10.016-6.848 13.504-5.664 4.928-17.344 23.328-24.736 60.256-5.824 29.248-3.392 35.616-0.96 41.856 1.024 2.592 1.984 5.184 2.752 8.16 4.896 17.696-0.544 75.872-6.432 108.16-2.56 14.016 0.672 53.888 26.912 87.456 23.552 30.048 59.168 46.816 104.576 49.728l38.272 0.032c46.688-2.944 82.304-19.712 105.856-49.76 26.208-33.568 29.44-73.44 26.88-87.456-5.824-32.256-11.264-90.464-6.432-108.096 0.8-3.008 1.824-5.6 2.848-8.192 2.336-6.208 4.896-12.608-0.992-41.856-7.392-36.96-19.040-55.328-24.768-60.288-3.872-3.424-6.304-8.288-6.752-13.44-1.984-22.24-10.88-50.624-18.688-67.232-8.96-18.976-19.264-44.288-19.264-71.328 0-23.392 0-52.544 35.008-63.552 56.896-16.832 147.872-48.064 195.936-67.008-80.288-79.392-190.496-128.64-312.032-128.64-120.448 0-229.664 48.384-309.76 126.496v0z" />
<glyph unicode="&#xe6ac;" glyph-name="map-direction" data-tags="map-direction" d="M385.312 317.376l166.976-336 426.72 933.824-933.76-448.128 340.064-149.696zM395.232 353.824l-260.672 114.72 715.904 343.584-455.232-458.304zM550.912 67.712l-129.216 259.936 459.232 462.4-330.016-722.336z" />
<glyph unicode="&#xe6ad;" glyph-name="mark" data-tags="mark" d="M0 960h128v-1024h-128v1024zM832 316.992c82.624 0 154.56 20 192 49.504v512c-37.44-29.504-109.376-49.504-192-49.504s-154.56 20-192 49.504v-512c37.44-29.504 109.376-49.504 192-49.504zM608 927.488c-46.912 19.936-115.52 32.512-192 32.512-96.384 0-180.32-20-224-49.504v-512c43.68 29.504 127.616 49.504 224 49.504 76.48 0 145.088-12.576 192-32.512v512z" />
<glyph unicode="&#xe6ae;" glyph-name="menu" data-tags="menu" d="M113.792 192h796.448v85.344h-796.448v-85.344zM113.792 419.552h796.448v85.344h-796.448v-85.344zM113.792 732.448v-85.344h796.448v85.344h-796.448z" />
<glyph unicode="&#xe6af;" glyph-name="minus" data-tags="minus" d="M0 544v-192c0-17.664 14.336-32 32-32h960c17.696 0 32 14.336 32 32v192c0 17.664-14.304 32-32 32h-960c-17.664 0-32-14.336-32-32z" />
<glyph unicode="&#xe6b0;" glyph-name="minus-circle" data-tags="minus-circle" d="M513.568 945.664c-274.56 0-497.088-222.528-497.088-497.088 0-274.592 222.528-497.088 497.088-497.088s497.088 222.496 497.088 497.088c0 274.56-222.528 497.088-497.088 497.088zM772.064 428.672h-515.68v39.776h515.68v-39.776z" />
<glyph unicode="&#xe6b1;" glyph-name="minus-outline" data-tags="minus-outline" d="M512.608 944.64c-274.56 0-497.088-222.528-497.088-497.088s222.528-497.088 497.088-497.088c274.592 0 497.088 222.528 497.088 497.088s-222.496 497.088-497.088 497.088zM512.608-9.824c-252.16 0-457.344 205.184-457.344 457.344s205.184 457.376 457.344 457.376c252.128 0 457.344-205.184 457.344-457.344s-205.216-457.376-457.344-457.376zM255.424 467.424h515.712v-39.776h-515.712v39.776z" />
<glyph unicode="&#xe6b2;" glyph-name="modeedit" data-tags="modeedit" d="M113.792 227.264v-177.504h177.504l505.216 505.184-177.536 177.504-505.184-505.184zM953.472 711.392c18.784 18.784 18.784 48.352 0 67.136l-110.944 110.944c-18.784 18.784-48.352 18.784-67.168 0l-92.704-93.312 177.504-177.504 93.312 92.736z" />
<glyph unicode="&#xe6b3;" glyph-name="mood" data-tags="mood" d="M341.344 504.896c31.296 0 56.896 25.6 56.896 56.896s-25.6 56.896-56.896 56.896-56.896-25.6-56.896-56.896 25.6-56.896 56.896-56.896zM682.656 504.896c31.296 0 56.896 25.6 56.896 56.896s-25.632 56.896-56.896 56.896-56.896-25.6-56.896-56.896 25.6-56.896 56.896-56.896zM512 192c121.76 0 223.008 85.344 249.184 199.136h-498.336c26.176-113.824 127.424-199.136 249.152-199.136v0zM512 903.104c-252.032 0-455.104-203.648-455.104-455.104 0-251.424 203.104-455.136 455.104-455.136s455.136 203.712 455.136 455.136c0 251.456-203.712 455.104-455.136 455.104zM512 78.176c-204.224 0-369.792 165.568-369.792 369.824s165.536 369.792 369.792 369.792 369.824-165.536 369.824-369.792-165.568-369.824-369.824-369.824z" />
<glyph unicode="&#xe6b4;" glyph-name="mood-bad" data-tags="mood-bad" d="M511.584 874.656c-235.52 0-426.24-191.136-426.24-426.656 0-235.488 190.72-426.656 426.24-426.656 235.936 0 427.104 191.168 427.104 426.656 0 235.52-191.136 426.656-427.104 426.656zM512 106.656c-188.576 0-341.344 152.704-341.344 341.344 0 188.608 152.736 341.344 341.344 341.344 188.64 0 341.344-152.736 341.344-341.344 0-188.64-152.704-341.344-341.344-341.344zM661.344 490.656c35.392 0 64 28.576 64 64s-28.608 64-64 64-64-28.576-64-64 28.608-64 64-64zM362.656 490.656c35.424 0 64 28.576 64 64s-28.576 64-64 64-64-28.576-64-64 28.576-64 64-64zM512 362.656c-99.424 0-183.904-62.304-218.016-149.344h436.064c-34.144 87.040-118.624 149.344-218.048 149.344v0z" />
<glyph unicode="&#xe6b5;" glyph-name="more-horiz" data-tags="more-horiz" d="M227.552 533.344c-47.232 0-85.344-38.112-85.344-85.344 0-47.264 38.112-85.344 85.344-85.344s85.344 38.080 85.344 85.344c0 47.232-38.112 85.344-85.344 85.344zM796.448 533.344c-47.232 0-85.312-38.112-85.312-85.344 0-47.264 38.080-85.344 85.312-85.344 47.264 0 85.376 38.080 85.376 85.344 0 47.232-38.144 85.344-85.376 85.344zM512 533.344c-47.232 0-85.344-38.112-85.344-85.344 0-47.264 38.112-85.344 85.344-85.344 47.264 0 85.344 38.080 85.344 85.344 0 47.232-38.080 85.344-85.344 85.344z" />
<glyph unicode="&#xe6b6;" glyph-name="more-vert" data-tags="more-vert" d="M512 647.104c47.264 0 85.344 38.112 85.344 85.344s-38.080 85.344-85.344 85.344c-47.232 0-85.344-38.112-85.344-85.344s38.112-85.344 85.344-85.344zM512 533.344c-47.232 0-85.344-38.112-85.344-85.344 0-47.264 38.112-85.344 85.344-85.344 47.264 0 85.344 38.080 85.344 85.344 0 47.232-38.080 85.344-85.344 85.344zM512 248.864c-47.232 0-85.344-38.080-85.344-85.312 0-47.264 38.112-85.376 85.344-85.376 47.264 0 85.344 38.112 85.344 85.376 0 47.232-38.080 85.312-85.344 85.312z" />
<glyph unicode="&#xe6b7;" glyph-name="navigate-before" data-tags="navigate-before" d="M657.504 643.84l-60.16 60.16-256-256 256-256 60.16 60.16-195.424 195.84 195.424 195.84z" />
<glyph unicode="&#xe6b8;" glyph-name="navigate-next" data-tags="navigate-next" d="M426.656 704l-60.16-60.16 195.456-195.84-195.424-195.84 60.16-60.16 256 256-256.032 256z" />
<glyph unicode="&#xe6b9;" glyph-name="note-add" data-tags="note-add" d="M597.344 874.656h-341.344c-46.944 0-84.896-38.4-84.896-85.344l-0.416-682.656c0-46.944 37.984-85.344 84.896-85.344h512.416c46.944 0 85.344 38.4 85.344 85.344v512l-256 256zM682.656 277.344h-128v-128h-85.344v128h-128v85.344h128v128h85.344v-128h128v-85.344zM554.656 576v234.656l234.656-234.656h-234.656z" />
<glyph unicode="&#xe6ba;" glyph-name="ok-circle" data-tags="ok-circle" d="M510.624 948.736c-275.968 0-499.68-223.744-499.68-499.68s223.712-499.68 499.68-499.68c275.936 0 499.68 223.712 499.68 499.68s-223.744 499.68-499.68 499.68zM802.304 584.416l-342.048-331.744c-5.856-5.664-13.344-8.48-20.896-8.48-7.68 0-15.36 2.976-21.184 8.832l-133.28 133.28c-11.712 11.712-11.712 30.688 0 42.4s30.688 11.712 42.4 0l112.416-112.448 320.832 311.168c11.872 11.52 30.816 11.232 42.368-0.672 11.584-11.808 11.264-30.784-0.608-42.336v0z" />
<glyph unicode="&#xe6bb;" glyph-name="ok-outline" data-tags="ok-outline" d="M513.12 947.936c-275.232 0-498.4-223.136-498.4-498.4 0-275.296 223.136-498.4 498.4-498.4s498.368 223.136 498.368 498.4c0 275.264-223.104 498.4-498.368 498.4zM513.12-8.992c-252.864 0-458.528 205.696-458.528 458.528s205.664 458.528 458.528 458.528 458.496-205.696 458.496-458.528-205.6-458.528-458.496-458.528zM762.432 627.488l-320.032-310.368-112.128 112.128c-11.68 11.68-30.592 11.68-42.304 0s-11.68-30.592 0-42.272l132.928-132.896c5.856-5.888 13.472-8.8 21.152-8.8 7.52 0 15.008 2.816 20.832 8.448l341.184 330.848c11.84 11.52 12.16 30.464 0.672 42.304-11.52 11.84-30.496 12.128-42.304 0.608v0z" />
<glyph unicode="&#xe6bc;" glyph-name="open-in-browser" data-tags="open-in-browser" d="M810.656 789.344h-597.344c-47.36 0-85.344-38.4-85.344-85.344v-512c0-46.944 37.984-85.344 85.344-85.344h170.656v85.344h-170.656v426.656h597.344v-426.656h-170.656v-85.344h170.656c46.944 0 85.344 38.4 85.344 85.344v512c0 46.944-37.984 85.344-85.344 85.344zM512 533.344l-170.656-170.656h128v-256h85.344v256h128l-170.688 170.656z" />
<glyph unicode="&#xe6bd;" glyph-name="open-in-new" data-tags="open-in-new" d="M810.656 149.344h-597.344v597.344h298.656v85.344h-298.656c-47.36 0-85.344-38.4-85.344-85.344v-597.344c0-46.944 37.984-85.344 85.344-85.344h597.344c46.944 0 85.344 38.4 85.344 85.344v298.656h-85.344v-298.656zM597.344 832v-85.344h153.184l-419.424-419.392 60.16-60.192 419.424 419.424v-153.184h85.344v298.656l-298.688 0.032z" />
<glyph unicode="&#xe6be;" glyph-name="opera" data-tags="opera" d="M510.048 960c-279.712 0-480.736-202.88-480.736-507.232 0-270.816 195.488-516.768 480.768-516.768 288.032 0 484.608 245.888 484.608 516.768 0 306.752-207.424 507.232-484.64 507.232v0zM688.384 461.472c-0.096-169.344-9.12-410.496-178.304-410.496v-0.032c-166.784 0-173.44 241.28-173.44 410.304 0 198.368 18.56 388.576 173.44 388.576 154.848 0 178.304-192.576 178.304-388.352z" />
<glyph unicode="&#xe6bf;" glyph-name="pageview" data-tags="pageview" d="M490.656 576c-58.88 0-106.656-47.776-106.656-106.656s47.776-106.656 106.656-106.656 106.656 47.776 106.656 106.656-47.776 106.656-106.656 106.656zM853.344 789.344h-682.656c-46.944 0-85.344-38.4-85.344-85.344v-512c0-46.944 38.4-85.344 85.344-85.344h682.656c46.944 0 85.344 38.4 85.344 85.344v512c0 46.944-38.4 85.344-85.344 85.344zM716.384 183.040l-124.16 124.16c-29.44-18.752-64.416-29.856-101.984-29.856-105.824 0-191.584 85.792-191.584 192 0 106.24 85.76 192 192 192 106.208 0 192-85.76 192-192 0-37.536-11.104-72.096-29.856-101.984l124.128-123.744-60.544-60.576z" />
<glyph unicode="&#xe6c0;" glyph-name="checkbox-unchecked" data-tags="checkbox-unchecked" d="M512 938.656c-271.328 0-490.656-219.328-490.656-490.656s219.328-490.656 490.656-490.656 490.656 219.328 490.656 490.656-219.328 490.656-490.656 490.656zM512 55.454c-216.384 0-392.546 176.162-392.546 392.546s176.162 392.546 392.546 392.546 392.546-176.162 392.546-392.546-176.162-392.546-392.546-392.546z" />
<glyph unicode="&#xe6c1;" glyph-name="paperclip" data-tags="paperclip" d="M665.824 632.96l-64.928 64.928-324.832-324.736c-53.824-53.792-53.824-141.056 0-194.848 53.824-53.824 141.056-53.824 194.88 0l389.76 389.696c89.76 89.664 89.76 235.072 0 324.736-89.632 89.696-235.104 89.696-324.736 0l-409.248-409.184c-0.288-0.288-0.608-0.576-0.864-0.832-125.088-125.088-125.088-327.84 0-452.896 125.056-125.056 327.872-125.056 452.992 0 0.288 0.32 0.544 0.608 0.832 0.864l0.032-0.032 279.328 279.296-64.992 64.928-279.328-279.264c-0.288-0.256-0.576-0.608-0.832-0.832-89.088-89.024-233.984-89.024-323.072 0-89.056 89.056-89.056 233.92 0 322.976 0.32 0.32 0.608 0.608 0.896 0.832l-0.032 0.064 409.248 409.152c53.728 53.728 141.184 53.728 194.912 0s53.696-141.152 0-194.848l-389.76-389.696c-17.92-17.92-47.040-17.92-64.96 0-17.888 17.92-17.888 47.072 0 64.928l324.704 324.768z" />
<glyph unicode="&#xe6c2;" glyph-name="people" data-tags="people" d="M317.824 512.736c71.84 0 129.44 58.24 129.44 129.44s-57.6 129.44-129.44 129.44c-71.2 0-129.44-58.24-129.44-129.44s58.24-129.44 129.44-129.44zM706.176 512.736c71.808 0 129.44 58.24 129.44 129.44s-57.632 129.44-129.44 129.44c-71.872 0-129.44-58.24-129.44-129.44s58.24-129.44 129.44-129.44zM317.824 435.040c-108.096 0-323.648-53.728-323.648-161.824v-84.16h647.264v84.16c0 108.096-215.552 161.824-323.616 161.824v0zM706.176 435.040c-16.192 0-34.944-1.28-54.368-3.84 51.136-38.88 86.72-90.624 86.72-157.952v-84.16h291.296v84.16c0 108.096-215.552 161.824-323.68 161.824l0.032-0.032z" />
<glyph unicode="&#xe6c3;" glyph-name="peopl-outline" data-tags="peopl-outline" d="M730.464 399.424c-58.24 0-149.024-16.512-218.464-48.544-69.408 32.544-160.192 48.544-218.464 48.544-105.344 0-315.552-52.416-315.552-157.76v-133.504h1068v133.504c0.032 105.376-210.208 157.76-315.52 157.76v0zM536.288 180.992h-485.44v60.672c0 26.208 124.288 84.96 242.72 84.96s242.72-58.752 242.72-84.96v-60.672zM973.184 180.992h-364.096v60.672c0 22.336-9.728 41.792-25.248 59.232 42.72 14.56 95.136 25.76 146.592 25.76 118.432 0 242.72-58.752 242.72-84.96l0.032-60.704zM293.536 448c93.696 0 169.92 76.224 169.92 169.92s-76.224 169.92-169.92 169.92c-93.696 0-169.92-76.224-169.92-169.92s76.224-169.92 169.92-169.92zM293.536 715.008c53.408 0 97.088-43.68 97.088-97.088s-43.68-97.088-97.088-97.088-97.088 43.68-97.088 97.088 43.68 97.088 97.088 97.088zM730.464 448c93.696 0 169.92 76.224 169.92 169.92s-76.224 169.92-169.92 169.92c-93.728 0-169.92-76.224-169.92-169.92 0.032-93.696 76.192-169.92 169.92-169.92zM730.464 715.008c53.408 0 97.088-43.68 97.088-97.088s-43.68-97.088-97.088-97.088-97.088 43.68-97.088 97.088 43.68 97.088 97.088 97.088z" />
<glyph unicode="&#xe6c4;" glyph-name="perm-contact-calendar" data-tags="perm-contact-calendar" d="M810.656 832h-42.656v85.344h-85.344v-85.344h-341.344v85.344h-85.344v-85.344h-42.656c-47.36 0-85.344-38.4-85.344-85.344v-597.344c0-46.944 37.984-85.344 85.344-85.344h597.344c46.944 0 85.344 38.4 85.344 85.344v597.344c0 46.944-38.4 85.344-85.344 85.344zM512 704c70.816 0 128-57.184 128-128s-57.184-128-128-128-128 57.184-128 128 57.184 128 128 128zM768 192h-512v42.656c0 85.344 170.656 132.256 256 132.256s256-46.944 256-132.256v-42.656z" />
<glyph unicode="&#xe6c5;" glyph-name="perm-identity" data-tags="perm-identity" d="M512 708.256c49.504 0 89.6-40.096 89.6-89.6s-40.096-89.6-89.6-89.6-89.6 40.096-89.6 89.6 40.096 89.6 89.6 89.6zM512 324.256c126.72 0 260.256-62.304 260.256-89.6v-46.944h-520.544v46.944c0 27.296 133.536 89.6 260.288 89.6v0zM512 789.344c-94.304 0-170.656-76.384-170.656-170.656s76.384-170.656 170.656-170.656c94.24 0 170.656 76.384 170.656 170.656s-76.416 170.656-170.656 170.656zM512 405.344c-113.92 0-341.344-57.184-341.344-170.656v-128h682.656v128c0 113.504-227.424 170.656-341.312 170.656v0z" />
<glyph unicode="&#xe6c6;" glyph-name="perm-media" data-tags="perm-media" d="M85.344 704h-85.344v-213.344h0.416l-0.416-384c0-46.944 38.4-85.344 85.344-85.344h768v85.344h-768v597.344zM938.656 789.344h-341.344l-85.344 85.344h-256c-46.944 0-84.896-38.4-84.896-85.344l-0.416-512c0-46.944 38.4-85.344 85.344-85.344h682.656c46.944 0 85.344 38.4 85.344 85.344v426.656c0 46.944-38.4 85.344-85.344 85.344zM298.656 320l192 256 149.344-192.448 106.656 128.448 149.344-192h-597.344z" />
<glyph unicode="&#xe6c7;" glyph-name="person" data-tags="person" d="M512 521.632c122.24 0 220.192 98.688 220.192 220.928s-97.952 220.928-220.192 220.928c-122.24 0-220.928-98.688-220.928-220.928s98.688-220.928 220.928-220.928zM512 374.368c-171.584 0-515.52-86.176-515.52-257.76v-184.128h1031.008v184.064c0 171.616-343.936 257.792-515.488 257.824v0z" />
<glyph unicode="&#xe6c8;" glyph-name="person-add" data-tags="person-add" d="M588.672 508.672c100.704 0 181.44 81.312 181.44 182.048s-80.704 182.048-181.44 182.048c-100.736 0-182.048-81.312-182.048-182.048s81.312-182.048 182.048-182.048zM224.608 387.328v121.376h121.376v121.376h-121.376v121.376h-121.376v-121.376h-121.376v-121.376h121.376v-121.376h121.376zM588.672 387.328c-141.376 0-424.768-71.008-424.768-212.384v-151.68h849.536v151.68c0 141.376-283.392 212.384-424.768 212.384z" />
<glyph unicode="&#xe6ca;" glyph-name="phone" data-tags="phone" d="M282.464 499.616c61.44-120.736 160.416-219.296 281.152-281.184l93.888 93.856c11.52 11.52 28.576 15.36 43.52 10.24 47.776-15.776 99.392-24.352 152.32-24.352 23.456 0 42.656-19.2 42.656-42.624v-148.896c0-23.456-19.2-42.656-42.656-42.656-400.64 0-725.344 324.672-725.344 725.344 0 23.456 19.2 42.656 42.656 42.656h149.344c23.456 0 42.656-19.2 42.656-42.656 0-53.344 8.544-104.544 24.32-152.32 4.704-14.944 1.28-31.584-10.656-43.52l-93.856-93.888z" />
<glyph unicode="&#xe6cb;" glyph-name="phone-android" data-tags="phone-android" d="M682.656 917.344h-341.344c-70.816 0-128-57.184-128-128v-682.656c0-70.816 57.184-128 128-128h341.344c70.816 0 128 57.184 128 128v682.656c0 70.816-57.184 128-128 128zM597.344 64h-170.656v42.656h170.656v-42.656zM736 192h-448v597.344h448v-597.344z" />
<glyph unicode="&#xe6cc;" glyph-name="photo-camera" data-tags="photo-camera" d="M648.576 448c0-75.36-61.12-136.576-136.576-136.576-75.424 0-136.544 61.12-136.544 136.576 0 75.392 61.12 136.544 136.544 136.544s136.576-61.12 136.576-136.544zM384 874.656l-78.080-85.344h-135.264c-46.944 0-85.344-38.4-85.344-85.344v-512c0-46.944 38.4-85.344 85.344-85.344h682.656c46.944 0 85.344 38.4 85.344 85.344v512c0 46.944-38.4 85.344-85.344 85.344h-135.264l-78.080 85.344h-255.968zM512 234.656c-117.76 0-213.344 95.584-213.344 213.344s95.584 213.344 213.344 213.344c117.76 0 213.344-95.584 213.344-213.344s-95.584-213.344-213.344-213.344z" />
<glyph unicode="&#xe6cd;" glyph-name="picture-in-picture" data-tags="picture-in-picture" d="M810.656 661.344h-341.344v-256h341.344v256zM896 832h-768c-46.944 0-85.344-38.4-85.344-85.344v-597.344c0-46.944 38.4-84.512 85.344-84.512h768c46.944 0 85.344 37.568 85.344 84.512v597.344c0 46.944-38.4 85.344-85.344 85.344zM896 148.864h-768v598.656h768v-598.656z" />
<glyph unicode="&#xe6ce;" glyph-name="pindrop" data-tags="pindrop" d="M768 618.656c0 141.216-114.784 256-256 256s-256-114.784-256-256c0-192 256-469.344 256-469.344s256 277.344 256 469.344zM426.656 618.656c0 46.944 38.4 85.344 85.344 85.344s85.344-38.4 85.344-85.344-37.984-85.344-85.344-85.344c-46.944 0-85.344 38.4-85.344 85.344zM213.344 106.656v-85.344h597.344v85.344h-597.344z" />
<glyph unicode="&#xe6cf;" glyph-name="place" data-tags="place" d="M512 874.656c-165.12 0-298.656-133.536-298.656-298.656 0-224 298.656-554.656 298.656-554.656s298.656 330.656 298.656 554.656c0 165.12-133.536 298.656-298.656 298.656zM512 469.344c-58.88 0-106.656 47.776-106.656 106.656s47.776 106.656 106.656 106.656 106.656-47.776 106.656-106.656-47.776-106.656-106.656-106.656z" />
<glyph unicode="&#xe6d0;" glyph-name="plus" data-tags="plus" d="M992 576h-352v352c0 17.664-14.304 32-32 32h-192c-17.664 0-32-14.336-32-32v-352h-352c-17.664 0-32-14.336-32-32v-192c0-17.664 14.336-32 32-32h352v-352c0-17.664 14.336-32 32-32h192c17.696 0 32 14.336 32 32v352h352c17.696 0 32 14.336 32 32v192c0 17.664-14.304 32-32 32z" />
<glyph unicode="&#xe6d1;" glyph-name="plus-circle" data-tags="plus-circle" d="M509.696 946.624c-274.56 0-497.088-222.528-497.088-497.088s222.528-497.088 497.088-497.088c274.56 0 497.088 222.528 497.088 497.088s-222.528 497.088-497.088 497.088v0zM807.968 429.632h-278.4v-277.056h-39.776v277.056h-277.056v39.776h277.056v278.368h39.776v-278.368h278.4v-39.776z" />
<glyph unicode="&#xe6d2;" glyph-name="plus-one" data-tags="plus-one" d="M426.656 618.656h-85.344v-170.656h-170.656v-85.344h170.656v-170.656h85.344v170.656h170.656v85.344h-170.656v170.656zM618.656 700.576v-77.664l106.656 21.344v-452.256h85.344v554.656l-192-46.080z" />
<glyph unicode="&#xe6d3;" glyph-name="plus-outline" data-tags="plus-outline" d="M509.952 944.8c-274.528 0-497.056-222.496-497.056-497.056s222.496-497.056 497.056-497.056c274.56 0 497.056 222.496 497.056 497.056 0 274.528-222.496 497.056-497.056 497.056zM509.952-9.504c-252.128 0-457.28 205.152-457.28 457.28s205.152 457.28 457.28 457.28c252.096 0 457.312-205.152 457.312-457.28s-205.216-457.28-457.312-457.28zM529.888 745.984h-39.808v-278.336h-277.024v-39.776h277.024v-277.024h39.808v277.024h278.304v39.776h-278.304v278.336z" />
<glyph unicode="&#xe6d4;" glyph-name="power-settings-new" data-tags="power-settings-new" d="M554.656 832h-85.344v-426.656h85.344v426.656zM760.736 739.424l-60.576-60.576c67.392-54.176 110.496-137.376 110.496-230.816 0-165.12-133.536-298.656-298.656-298.656s-298.656 133.536-298.656 298.656c0 93.44 43.104 176.64 110.080 231.264l-60.16 60.16c-82.784-70.4-135.264-174.496-135.264-291.424 0-212.064 171.936-384 384-384s384 171.936 384 384c0 116.896-52.512 221.024-135.264 291.392v0z" />
<glyph unicode="&#xe6d5;" glyph-name="print" data-tags="print" d="M810.656 618.656h-597.344c-70.816 0-128-57.184-128-128v-256h170.656v-170.656h512v170.656h170.656v256c0 70.816-57.184 128-127.968 128v0zM682.656 149.344h-341.344v213.344h341.344v-213.344zM810.656 448c-23.456 0-42.656 19.2-42.656 42.656s19.2 42.656 42.656 42.656 42.656-19.2 42.656-42.656-19.2-42.656-42.656-42.656zM768 832h-512v-170.656h512v170.656z" />
<glyph unicode="&#xe6d6;" glyph-name="profile" data-tags="profile" d="M864 960h-768c-52.8 0-96-43.2-96-96v-832c0-52.8 43.2-96 96-96h768c52.8 0 96 43.2 96 96v832c0 52.8-43.2 96-96 96zM832 64h-704v768h704v-768zM256 384h448v-64h-448v64zM256 256h448v-64h-448v64zM320 672c0 53.024 42.976 96 96 96s96-42.976 96-96-42.976-96-96-96-96 42.976-96 96zM480 576h-128c-52.8 0-96-28.8-96-64v-64h320v64c0 35.2-43.2 64-96 64z" />
<glyph unicode="&#xe6d7;" glyph-name="qrcode" data-tags="qrcode" d="M320 896h-256v-256h256v256zM384 960v0-384h-384v384h384zM128 832h128v-128h-128v128zM960 896h-256v-256h256v256zM1024 960v0-384h-384v384h384zM768 832h128v-128h-128v128zM320 256h-256v-256h256v256zM384 320v0-384h-384v384h384zM128 192h128v-128h-128v128zM448 960h64v-64h-64v64zM512 896h64v-64h-64v64zM448 832h64v-64h-64v64zM512 768h64v-64h-64v64zM448 704h64v-64h-64v64zM512 640h64v-64h-64v64zM448 576h64v-64h-64v64zM448 448h64v-64h-64v64zM512 384h64v-64h-64v64zM448 320h64v-64h-64v64zM512 256h64v-64h-64v64zM448 192h64v-64h-64v64zM512 128h64v-64h-64v64zM448 64h64v-64h-64v64zM512 0h64v-64h-64v64zM960 448h64v-64h-64v64zM64 448h64v-64h-64v64zM128 512h64v-64h-64v64zM0 512h64v-64h-64v64zM256 512h64v-64h-64v64zM320 448h64v-64h-64v64zM384 512h64v-64h-64v64zM576 448h64v-64h-64v64zM640 512h64v-64h-64v64zM704 448h64v-64h-64v64zM768 512h64v-64h-64v64zM832 448h64v-64h-64v64zM896 512h64v-64h-64v64zM960 320h64v-64h-64v64zM576 320h64v-64h-64v64zM640 384h64v-64h-64v64zM704 320h64v-64h-64v64zM832 320h64v-64h-64v64zM896 384h64v-64h-64v64zM960 192h64v-64h-64v64zM576 192h64v-64h-64v64zM640 256h64v-64h-64v64zM768 256h64v-64h-64v64zM832 192h64v-64h-64v64zM896 256h64v-64h-64v64zM960 64h64v-64h-64v64zM640 128h64v-64h-64v64zM704 64h64v-64h-64v64zM768 128h64v-64h-64v64zM832 64h64v-64h-64v64zM640 0h64v-64h-64v64zM768 0h64v-64h-64v64zM896 0h64v-64h-64v64z" />
<glyph unicode="&#xe6d8;" glyph-name="radio-checked" data-tags="radio-checked" d="M512 690.72c-133.984 0-242.72-108.736-242.72-242.72 0-134.016 108.736-242.72 242.72-242.72 134.016 0 242.72 108.704 242.72 242.72 0 133.984-108.704 242.72-242.72 242.72zM512 933.44c-267.968 0-485.44-217.472-485.44-485.44s217.472-485.44 485.44-485.44 485.44 217.472 485.44 485.44-217.472 485.44-485.44 485.44zM512 59.648c-214.56 0-388.352 173.792-388.352 388.352s173.792 388.352 388.352 388.352 388.384-173.792 388.384-388.352-173.824-388.352-388.384-388.352z" />
<glyph unicode="&#xe6d9;" glyph-name="radio-unchecked" data-tags="radio-unchecked" d="M512 933.44c-267.968 0-485.44-217.472-485.44-485.44s217.472-485.44 485.44-485.44 485.44 217.472 485.44 485.44-217.472 485.44-485.44 485.44zM512 59.648c-214.56 0-388.352 173.792-388.352 388.352s173.792 388.352 388.352 388.352 388.384-173.792 388.384-388.352-173.824-388.352-388.384-388.352z" />
</font>
</defs>
</svg>
